<svg width="40" height="40" viewBox="0 0 40 40" fill="none" xmlns="http://www.w3.org/2000/svg">
<path fill-rule="evenodd" clip-rule="evenodd" d="M20 38C29.9411 38 38 29.9411 38 20C38 10.0589 29.9411 2 20 2C10.0589 2 2 10.0589 2 20C2 29.9411 10.0589 38 20 38ZM20 40C31.0457 40 40 31.0457 40 20C40 8.9543 31.0457 0 20 0C8.9543 0 0 8.9543 0 20C0 31.0457 8.9543 40 20 40Z" fill="white"/>
<path d="M11.9178 14.1597H9.53603C9.50747 14.8726 8.5022 16.0875 7 16.0875V18.0494C8.29086 18.0494 9.13049 17.5703 9.38181 17.1825H9.49033V25.8403H11.9178V14.1597Z" fill="white"/>
<path d="M19.0647 26C21.6921 26 23.5941 24.5913 23.6056 22.6977C23.5941 21.2376 22.4746 20.0456 21.0695 19.8118V19.7319C22.2918 19.481 23.16 18.4202 23.1715 17.1426C23.16 15.3346 21.4237 14 19.0647 14C16.6886 14 14.9522 15.3346 14.9636 17.1426C14.9522 18.4202 15.8204 19.481 17.0656 19.7319V19.8118C15.6376 20.0456 14.5181 21.2376 14.5295 22.6977C14.5181 24.5913 16.4144 26 19.0647 26ZM19.0647 24.1863C17.8824 24.1863 17.0884 23.4962 17.0998 22.5038C17.0884 21.4943 17.9223 20.7643 19.0647 20.7643C20.1899 20.7643 21.0181 21.4943 21.0295 22.5038C21.0181 23.4962 20.2299 24.1863 19.0647 24.1863ZM19.0647 18.9677C18.0708 18.9677 17.3626 18.3232 17.374 17.3992C17.3626 16.4924 18.0594 15.8593 19.0647 15.8593C20.0528 15.8593 20.744 16.4924 20.7554 17.3992C20.744 18.3232 20.0414 18.9677 19.0647 18.9677Z" fill="white"/>
<path d="M33 19.0589H30.1898V16.3498H28.2764V19.0589H25.4662V20.9411H28.2764V23.6502H30.1898V20.9411H33V19.0589Z" fill="white"/>
</svg>
