<svg width="32" height="22" viewBox="0 0 32 22" fill="none" xmlns="http://www.w3.org/2000/svg">
<rect width="32" height="22" rx="2" fill="#043CAE"/>
<path fill-rule="evenodd" clip-rule="evenodd" d="M15.0088 4.98239L16 4.69208L16.9912 4.98239L16.7009 3.99119L16.9912 3L16 3.29031L15.0088 3L15.2991 3.99119L15.0088 4.98239ZM15.0088 18.9999L16 18.7096L16.9912 18.9999L16.7009 18.0087L16.9912 17.0175L16 17.3078L15.0088 17.0175L15.2991 18.0087L15.0088 18.9999ZM23.0088 11.7008L22.0176 11.9912L22.3079 11L22.0176 10.0088L23.0088 10.2991L24 10.0088L23.7097 11L24 11.9912L23.0088 11.7008ZM8 11.9912L8.99119 11.7008L9.98239 11.9912L9.69208 11L9.98239 10.0088L8.99119 10.2991L8 10.0088L8.29031 11L8 11.9912ZM22.0698 8.19639L21.0786 8.48671L21.3689 7.49551L21.0786 6.50432L22.0698 6.79463L23.061 6.50432L22.7707 7.49551L23.061 8.48671L22.0698 8.19639ZM8.939 15.4956L9.93019 15.2053L10.9214 15.4956L10.6311 14.5044L10.9214 13.5132L9.93019 13.8035L8.939 13.5132L9.22931 14.5044L8.939 15.4956ZM19.5044 5.6311L18.5132 5.92142L18.8035 4.93022L18.5132 3.93903L19.5044 4.22934L20.4956 3.93903L20.2053 4.93022L20.4956 5.92142L19.5044 5.6311ZM11.5044 18.061L12.4956 17.7707L13.4868 18.061L13.1965 17.0698L13.4868 16.0786L12.4956 16.3689L11.5044 16.0786L11.7947 17.0698L11.5044 18.061ZM22.0698 15.2053L21.0786 15.4956L21.3689 14.5044L21.0786 13.5132L22.0698 13.8035L23.061 13.5132L22.7707 14.5044L23.061 15.4956L22.0698 15.2053ZM8.939 8.48671L9.93019 8.19639L10.9214 8.48671L10.6311 7.49551L10.9214 6.50432L9.93019 6.79463L8.939 6.50432L9.22931 7.49551L8.939 8.48671ZM19.5044 17.7707L18.5132 18.061L18.8035 17.0698L18.5132 16.0786L19.5044 16.3689L20.4956 16.0786L20.2053 17.0698L20.4956 18.061L19.5044 17.7707ZM11.5044 5.92142L12.4956 5.6311L13.4868 5.92142L13.1965 4.93022L13.4868 3.93903L12.4956 4.22934L11.5044 3.93903L11.7947 4.93022L11.5044 5.92142Z" fill="#FFD429"/>
</svg>
