<svg width="108" height="36" viewBox="0 0 108 36" fill="none" xmlns="http://www.w3.org/2000/svg">
<path d="M67 26.9515C67 29.1873 65.1873 31 62.9515 31H45.0161C42.798 31 41 29.202 41 26.9844V8.87146C41 6.73324 42.7332 5 44.8715 5H63.1285C65.2668 5 67 6.73324 67 8.87097V26.9515Z" fill="#EBAB1F"/>
<path d="M43.4534 15.1196V21.727L42.2742 21.9918V15.3844L43.4534 15.1196ZM46.5752 15.9718C45.8476 16.1351 45.4009 16.9544 45.4009 16.9544V16.3386L44.2565 16.5881V20.5302C44.3963 20.4767 44.5478 20.4459 44.7062 20.4459C44.9611 20.4459 45.1979 20.5223 45.396 20.6528V18.7283C45.4048 17.8065 45.6691 17.2682 46.2212 17.1441C46.7061 17.0353 46.888 17.3966 46.8802 17.9546V20.9646L48.0035 20.7111L48.0113 17.7104C48.0211 16.241 47.4283 15.7801 46.5752 15.9718ZM48.2756 15.6855L48.9194 15.5408V14.6161L50.0579 14.3626V15.2854L50.8683 15.103L50.8571 16.1022L50.0456 16.2846L50.0397 18.7867C50.0451 19.0921 50.0986 19.2814 50.4413 19.2044C50.5751 19.1745 50.682 19.1407 50.8041 19.0941L50.807 20.0325C50.5227 20.1674 50.3511 20.2218 50.1172 20.2742C49.4661 20.4248 48.9042 20.0011 48.9042 19.1358L48.9081 16.5401L48.2638 16.6847L48.2756 15.6855ZM52.2402 17.5776C52.2407 17.683 52.2378 17.7693 52.2549 17.8708C52.3402 18.3777 52.5893 18.7715 53.1017 18.6567C53.5724 18.5513 53.7288 18.2385 53.819 17.8933L55.0119 17.6256C54.8874 18.39 54.4741 19.3534 53.1718 19.6452C52.0039 19.907 51.2978 19.2328 51.1042 18.0806C50.8919 16.8176 51.2209 14.9358 52.9516 14.5475C54.2289 14.2611 54.8266 15.0167 54.9908 15.9939C55.056 16.3812 55.0521 16.669 55.0296 16.9514L52.2402 17.5776ZM53.8975 16.3356C53.9004 16.2488 53.8881 16.1753 53.8788 16.1199C53.8092 15.7051 53.5807 15.3829 53.0767 15.4962C52.5555 15.6129 52.2986 16.0532 52.251 16.7048L53.8975 16.3356ZM57.8469 14.8833C57.054 15.0711 56.6716 15.6237 56.6672 16.7073L56.6569 18.7666L55.5194 19.022V14.0581L56.6172 13.812C56.6314 13.9336 56.6574 14.3013 56.6554 14.7044C56.8403 14.0689 57.0938 13.7424 57.8464 13.5737V14.8833H57.8469ZM61.8875 17.556L61.8811 17.5575L60.7392 17.8154C60.6607 17.6727 60.5818 17.4462 60.5475 17.2868C60.3857 17.6295 60.1641 18.0242 59.3609 18.2047C58.5078 18.3964 58.0229 17.8154 57.917 17.2544C57.6664 15.9311 58.6162 15.2883 59.588 15.0407C59.9375 14.9515 60.2317 14.899 60.5637 14.8152L60.547 14.5176C60.5396 14.1552 60.4558 13.7139 59.8454 13.8512C59.3016 13.9733 59.2732 14.3175 59.2246 14.5681L58.0621 14.8289C58.0768 14.0302 58.4254 13.2594 59.7718 12.9569C60.8255 12.7201 61.7017 13.0329 61.6938 14.3283V16.6827C61.6938 16.6827 61.7218 17.0799 61.7669 17.2711C61.8125 17.4653 61.8875 17.556 61.8875 17.556ZM60.546 15.6198C60.2616 15.6835 60.0224 15.7566 59.8022 15.835C59.1874 16.088 58.98 16.3743 59.0565 16.7784C59.1084 17.0539 59.3075 17.2299 59.6757 17.1471C60.4617 16.9706 60.5303 16.2268 60.5436 15.6972L60.546 15.6198ZM65.9909 14.9878C65.9271 15.9409 65.4824 16.8171 64.2027 17.1044C63.1069 17.3505 62.3959 16.7725 62.1802 15.6325C61.9194 14.2538 62.3136 12.3734 63.9193 12.0131C65.3245 11.6973 65.8825 12.7127 65.9389 13.3325L64.8347 13.5806C64.7568 13.2148 64.5768 12.8623 64.0664 12.977C63.2633 13.1574 63.1961 14.5524 63.3403 15.3153C63.4653 15.9772 63.7639 16.2165 64.1733 16.1248C64.5499 16.0404 64.7656 15.7521 64.8524 15.2442L65.9909 14.9878ZM47.3107 23.4259L45.7005 22.3301C45.7005 22.3301 45.7 24.9013 45.7 25.0194C45.7 25.1018 45.6328 25.169 45.551 25.169C45.4686 25.169 45.4024 25.1018 45.4024 25.0194C45.4024 24.9905 45.399 22.0791 45.399 21.7236C45.399 21.3426 45.0896 21.0323 44.7086 21.0323C44.3262 21.0323 44.0173 21.3426 44.0173 21.7236L44.0183 27.4656C44.0183 28.4962 44.8572 29.3366 45.8883 29.3366H46.0118C47.0287 29.3366 47.8451 28.5124 47.8451 27.495C47.8451 27.495 47.8461 24.4953 47.8461 24.4649C47.8461 24.0663 47.6259 23.6677 47.3107 23.4259ZM42.6385 22.5699C42.3537 22.6385 42.1776 22.9248 42.2463 23.2097C42.3149 23.4946 42.6013 23.6706 42.8861 23.602L43.6907 23.4088V22.3169L42.6385 22.5699ZM42.6385 23.9766C42.3537 24.0452 42.1776 24.3315 42.2463 24.6164C42.3149 24.9013 42.6013 25.0773 42.8861 25.0086L43.6907 24.8155V23.7236L42.6385 23.9766ZM42.2463 26.0236C42.3144 26.3085 42.6013 26.4845 42.8861 26.4158L43.6907 26.2226V25.1307L42.6385 25.3832C42.3537 25.4519 42.1781 25.7387 42.2463 26.0236Z" fill="black"/>
</svg>
