<svg xmlns="http://www.w3.org/2000/svg" xmlns:xlink="http://www.w3.org/1999/xlink" fill="none" viewBox="0 0 45 34"><defs><path id="H" fill="#fff" d="M0 0h45v34H0z"/></defs><g clip-path="url(#a)"><g clip-path="url(#b)"><path fill="url(#c)" d="M15.257 4.025v-2.51l-4.168-.39-.181 2.865c.368-.015.955.083.916.861l-1.409 8.353L8.455.865l-3.432 12.08c-.09-.806-1.332-8.91-1.332-8.91-.082-.48.19-.708.681-.788V.476L.06.02v3s.827.007.947.846c.062.434.705 4.124.877 5.39.027.205.014.41-.041.608l-.333 1.207.53.724c.144.2.238.436.271.684l.629 8.063 3.248-.325 1.707-7.589 1.173 7.33 2.757-.26 1.9-8.53c.045-.211.134-.408.26-.578l.667-.892-.075-.103a1.51 1.51 0 0 1-.255-1.21l.936-4.361Z"/><path fill="url(#d)" d="M15.257 4.32V1.93l-4.168-.371-.181 2.728c.368-.013.955.08.916.821l-1.409 7.958L8.455 1.31 5.022 12.818C4.933 12.051 3.69 4.33 3.69 4.33c-.082-.457.19-.674.681-.75V.94L.06.507v2.858s.827.007.947.806c.062.413.705 3.987.877 5.193.027.195.014.39-.041.58l-.333 1.149.53.69c.144.19.238.414.271.65l.629 7.624 3.248-.31 1.707-7.229L9.067 19.5l2.757-.247 1.9-8.127c.045-.2.134-.388.26-.55l.667-.85-.075-.098a1.386 1.386 0 0 1-.255-1.152l.936-4.155Z"/><path fill="url(#e)" d="m2.487 11.66-.48-.666.302-1.108c.05-.181.062-.37.037-.557-.156-1.164-.74-5.419-.797-5.817-.12-.576-.976-.637-.976-.637L.516.568.059.02v3.4c.079.073.791.287.807.397l.765 5.582c.033.24.002.483-.085.705l-.394.996v.003l.531.564c.191.204.316.468.354.753l.936 8.427 3.214-.628.126-.561-2.804.38-.773-7.75a1.378 1.378 0 0 0-.248-.628Z"/><path fill="url(#f)" d="m16.136 9.598-.226.231.419.478c.16.182.247.422.247.672v4.673c0 .203-.06.402-.172.565a.907.907 0 0 1-.45.348l-.24.081v2.56l4.342-.388.001-3.475-.205.026a.435.435 0 0 1-.359-.12.51.51 0 0 1-.156-.369v-3.85c0-.23.076-.452.213-.629l.392-.504-.345-.38a1.02 1.02 0 0 1-.26-.685V5.473c0-.131.05-.256.135-.35a.445.445 0 0 1 .327-.144l.257.002V2.11l-3.638-.389V8.89c0 .268-.102.525-.283.71l.001-.001Z"/><path fill="url(#g)" d="m16.136 9.646-.226.219.419.451a.93.93 0 0 1 .247.634v4.414a.907.907 0 0 1-.623.862l-.238.077v2.418l4.341-.367.001-3.282-.205.025a.461.461 0 0 1-.515-.462v-3.637c0-.216.076-.426.213-.593l.392-.476-.345-.36a.934.934 0 0 1-.26-.646V5.751c0-.124.05-.243.135-.33a.458.458 0 0 1 .327-.137l.257.002V2.574l-3.638-.367v6.77a.934.934 0 0 1-.283.67l.001-.001Z"/><path fill="url(#h)" d="m16.244 18.667-.077-2.339.216-.072a.811.811 0 0 0 .409-.313.892.892 0 0 0 .156-.508l.077-4.307c0-.224-.08-.44-.224-.604l-.38-.43.205-.208a.91.91 0 0 0 .257-.638l-.075-6.995-.407-.542.02 7.193a.923.923 0 0 1-.185.555l-.476.511.395.464c.17.167.266.4.266.647l-.077 4.236a.456.456 0 0 1-.101.287.414.414 0 0 1-.252.15l-.315.052v3.414l4.38-.389v-.483l-3.812.319Z"/><path fill="url(#i)" d="M27.826 11.179s-1.575 3.6-1.665 3.822c-.114.28-.521.29-.523.29l-.518.039a.424.424 0 0 1-.34-.132.522.522 0 0 1-.143-.36v-3.514c0-.245.084-.48.236-.66l.42-.494-.374-.38a1.012 1.012 0 0 1-.284-.71V6.107c0-.13.048-.255.134-.347a.434.434 0 0 1 .32-.144h.252V2.51l-4.25-.425V5.12a.632.632 0 0 1 .482.21.771.771 0 0 1 .201.52v3.156c0 .265-.1.52-.277.704l-.222.23.41.474c.156.18.243.419.243.665v4.224c0 .202-.06.399-.169.561a.887.887 0 0 1-.441.345l-.234.08v2.555c2.062-.261 4.371-.457 6.742-.718V11.18Z"/><path fill="url(#j)" d="M27.826 11.104s-1.575 3.366-1.665 3.573c-.114.262-.521.27-.523.27l-.518.037a.45.45 0 0 1-.446-.276.46.46 0 0 1-.038-.184V11.24c0-.228.085-.448.238-.616l.42-.462-.375-.355a.914.914 0 0 1-.284-.664v-2.78a.46.46 0 0 1 .134-.324.448.448 0 0 1 .32-.134h.252V3l-4.25-.396V5.44a.67.67 0 0 1 .631.419.68.68 0 0 1 .053.263v2.95c0 .248-.1.486-.278.658l-.222.215.41.443a.915.915 0 0 1 .243.622v3.949a.88.88 0 0 1-.61.847l-.234.075v2.387c2.062-.244 4.371-.427 6.742-.67v-6.494Z"/><path fill="url(#k)" d="m21.507 15.922.23-.078a.866.866 0 0 0 .436-.333.958.958 0 0 0 .166-.541v-3.566a.97.97 0 0 0-.24-.642l-.403-.458.219-.222a.97.97 0 0 0 .273-.68V5.843a.734.734 0 0 0-.198-.503.641.641 0 0 0-.475-.203V2.645l-.433-.559-.003 3.53h.003v.004h.168a.46.46 0 0 1 .08.008.45.45 0 0 1 .227.132.51.51 0 0 1 .136.346v2.96a.975.975 0 0 1-.232.634l-.482.561.43.421a.965.965 0 0 1 .285.69v3.576a.472.472 0 0 1-.107.3.429.429 0 0 1-.266.154l-.236.036-.099.011v.003h-.003l.103 3.393 6.739-.7v-.538l-6.318.621.002-2.304-.002-.001Z"/><path fill="url(#l)" d="M28.748 3.178h-.003v2.597c.288 0 .557.176.678.471.04.098.055.205.055.311v3.325a.96.96 0 0 1-.265.666l-.244.253.227.22c.185.178.29.428.29.69v3.065a.839.839 0 0 1-.056.317.75.75 0 0 1-.692.478h-.111v2.359l5.042-.45 1.664-1.925.323-.383.015-3.406a.96.96 0 0 1 .268-.677l.459-.47-.449-.428a.96.96 0 0 1-.293-.688l.097-3.317-2.089-2.559-4.916-.449Zm4.323 7.44.126.15a.962.962 0 0 1 .224.62v3.062h-.003c-.037.591-.746.574-.861.567l-.288-.01a.437.437 0 0 1-.309-.138.476.476 0 0 1-.13-.322v-2.921a.96.96 0 0 1 .268-.668l.329-.34-.305-.292a.956.956 0 0 1-.291-.692V6.65c0-.123.047-.24.131-.328a.439.439 0 0 1 .316-.137h.246c-.031-.002-.05 0-.05 0s.948-.155.948.813v2.875c0 .29-.129.565-.35.744Z"/><path fill="url(#m)" d="M28.862 3.543h-.004v2.5a.734.734 0 0 1 .733.754v3.202a.906.906 0 0 1-.265.641l-.244.244.228.212a.91.91 0 0 1 .29.665v2.952a.75.75 0 0 1-.748.765h-.112v2.272l5.042-.433 1.665-1.854.322-.37.015-3.28a.908.908 0 0 1 .269-.651l.458-.453-.448-.413a.91.91 0 0 1-.294-.662l-.024-3.425-1.967-2.234-4.916-.432Zm4.323 7.164.125.145a.907.907 0 0 1 .224.597v2.95h-.003c-.036.569-.746.552-.86.546l-.289-.01a.444.444 0 0 1-.438-.444v-2.813c0-.242.096-.473.267-.643l.33-.328-.305-.28a.905.905 0 0 1-.292-.667V6.887a.448.448 0 0 1 .447-.447l.196-.002s.948-.148.948.784v2.769a.91.91 0 0 1-.35.716Z"/><path fill="url(#n)" d="M32.831 6.436c.102.007.347.042.46.222.006.015.015.029.021.043l.004.01a.44.44 0 0 1 .031.165l-.005 2.878a.91.91 0 0 1-.239.618l-.26.283.243.252a.915.915 0 0 1 .253.636l-.004 2.96a.441.441 0 0 1-.102.286c-.143.153-.385.153-.385.153h.016c.109.006.78.023.814-.538h.003v-3.03a.917.917 0 0 0-.211-.588l-.12-.143a.91.91 0 0 0 .331-.706v-2.73c0-.918-.896-.772-.896-.772l.047.001Z"/><path fill="url(#o)" d="m35.335 15.167-1.785 2.08-4.56.324v-2.08h.077a.58.58 0 0 0 .258-.055.661.661 0 0 0 .283-.269.812.812 0 0 0 .106-.404l.114-3.117a.995.995 0 0 0-.064-.352.886.886 0 0 0-.18-.292l-.19-.205.204-.237a.896.896 0 0 0 .165-.286.996.996 0 0 0 .058-.337V6.834a.856.856 0 0 0-.046-.29.7.7 0 0 0-.227-.32.56.56 0 0 0-.343-.12l-.024-2.51-.438-.416v3.31h.189a.493.493 0 0 1 .237.056.411.411 0 0 1 .152.16.496.496 0 0 1 .059.229v2.683c0 .22-.07.43-.199.592l-.44.558.395.427a.892.892 0 0 1 .18.293c.04.11.062.23.062.35l-.114 2.824a.506.506 0 0 1-.056.233c0 .009-.008.018-.012.027a.49.49 0 0 1-.039.053l-.011.016a.35.35 0 0 1-.278.134h-.24v2.991l5.087-.42 2.061-2.602-.44.075Z"/><path fill="url(#p)" d="m5.671 33.522 2.298.082 1.954-1.92.299.212v-2.62L6.06 25.682v-.945c0-.097.043-.19.12-.26a.439.439 0 0 1 .292-.107h.671c.11 0 .214.039.291.108a.346.346 0 0 1 .121.26v.886l2.336 2.203v-.006l-2.33-2.197v-.476l2.334 2.232v-5.482l-1.53.152-.461.706-.954-.706H5.6l-1.85 1.604v2.869l4.219 3.538v.855c0 .474-.742.488-.912.485h-.035l-.598-.032a.435.435 0 0 1-.277-.114.347.347 0 0 1-.113-.253v-.907l-2.106-1.747v3.368l1.743 1.806Z"/><path fill="url(#q)" d="M7.484 31.036v.022a.35.35 0 0 1-.12.236.437.437 0 0 1-.266.107h-.04c.165 0 .912-.012.912-.485v-.854l-4.22-3.539v-2.869l-.374-.173v3.248l4.112 3.483-.003.824Z"/><path fill="url(#r)" d="m9.921 31.683-1.954 1.92-2.297-.08-1.743-1.807v-3.368l-.48-.398v3.946l2.081 2.04h2.62L10.22 31.9v-.003l-.299-.213Z"/><path fill="url(#s)" d="M9.895 27.825v-.44l-.005-.005-2.33-2.238v.482l2.33 2.196.005.005Z"/><path fill="#FED6A4" d="m7.781 22.23-.784-.661-1.551.067-2.073 1.845.377.173L5.6 22.05h1.35l.953.706.462-.706 1.523-.138v-.506l-1.82.163-.287.661Z"/><path fill="url(#t)" d="m14.715 27.107.175.18-.324.369a.788.788 0 0 0-.192.52v3.617c0 .158.047.311.134.438a.702.702 0 0 0 .348.269l.185.063v1.382H11.68v-2.027l.159.02a.337.337 0 0 0 .277-.093.394.394 0 0 0 .121-.285v-3.223a.796.796 0 0 0-.165-.487l-.303-.39.267-.294a.79.79 0 0 0 .201-.53v-2.722a.4.4 0 0 0-.104-.27.344.344 0 0 0-.253-.112l-.2.001v-2.222l2.817-.301v5.548a.79.79 0 0 0 .219.55l-.001-.001Z"/><path fill="url(#u)" d="m14.715 27.144.175.17-.324.349a.72.72 0 0 0-.192.49v3.417a.702.702 0 0 0 .482.668l.185.059v1.588h-3.36l-.001-1.812.159.019a.356.356 0 0 0 .398-.357v-3.423a.725.725 0 0 0-.165-.46l-.303-.368.267-.278a.723.723 0 0 0 .201-.5v-2.577a.367.367 0 0 0-.104-.256.354.354 0 0 0-.253-.106l-.2.002V21.67l2.817-.284v5.24c0 .196.079.383.219.519l-.001-.001Z"/><path fill="url(#v)" d="m14.63 33.52.06-1.203-.167-.057a.629.629 0 0 1-.316-.241.691.691 0 0 1-.122-.394l-.06-3.334c0-.173.063-.34.175-.467l.294-.332-.16-.162a.704.704 0 0 1-.198-.493l.058-5.415.315-.42-.015 5.568c0 .156.05.307.143.43l.368.395-.306.36a.7.7 0 0 0-.205.5l.06 3.279c0 .081.027.16.077.222a.32.32 0 0 0 .195.116l.244.04v2.035l-3.39-.057v-.374l2.95.004Z"/><path fill="url(#w)" d="M22.402 22.512a.692.692 0 0 1 .449.168.574.574 0 0 1 .137.186c.032.069.05.144.05.219v6.259l-2.786-8.822-3.54.374v2.137a.7.7 0 0 1 .64.385c.037.08.051.168.051.255v3.206a.72.72 0 0 1-.383.624l-.113.064.295.306c.13.134.2.306.2.483l.001 2.793c0 .587-.755.49-.755.49v2.208l3.994-.054-.004-.34h.004l.01-1.89-.3-.042a.431.431 0 0 1-.254-.127.359.359 0 0 1-.103-.245l-.01-4.44 2.66 7.084 3.697.054v-2.323l-.3-.042a.435.435 0 0 1-.255-.128.363.363 0 0 1-.102-.245v-3.65c0-.212.101-.413.278-.553l.234-.185-.338-.39a.69.69 0 0 1-.173-.453v-3.05c0-.1.045-.197.123-.268a.447.447 0 0 1 .298-.111l.235-.002v-2.511l-3.943.373v2.203h.003Z"/><path fill="url(#x)" d="M22.396 22.762c.084 0 .166.014.243.041a.646.646 0 0 1 .206.117c.059.05.106.11.138.175a.474.474 0 0 1 .048.207v5.902l-2.785-8.319-3.54.352v2.016c.271 0 .526.136.64.363a.533.533 0 0 1 .051.24v3.024c0 .24-.144.462-.383.588l-.113.06.295.29c.13.126.2.288.2.455l.001 2.634c0 .553-.754.462-.754.462v2.082l3.994-.051-.005-.321h.005l.01-1.782-.301-.04a.44.44 0 0 1-.254-.12.329.329 0 0 1-.103-.23l-.01-4.188 2.66 6.68 3.697.052V31.26l-.3-.04a.444.444 0 0 1-.255-.12.333.333 0 0 1-.102-.231v-3.442c0-.2.102-.39.278-.521l.234-.175-.338-.367a.63.63 0 0 1-.173-.428V23.06c0-.094.045-.186.123-.253a.463.463 0 0 1 .298-.105l.235-.001v-2.369l-3.943.352v2.078h.003Z"/><path fill="url(#y)" d="m20.182 33.397.06-1.71-.171-.056a.64.64 0 0 1-.323-.242.681.681 0 0 1-.124-.394l.124-4.8.233.543.121 4.166c0 .081.029.16.08.222a.33.33 0 0 0 .199.116l.308.04-.045 2.504-.462-.39Z"/><path fill="url(#z)" d="M22.507 33.44h3.503l.018-1.901s-.693.1-.693-.52v-3.272c0-.188.065-.37.184-.512l.27-.324-.102-.068a.765.765 0 0 1-.258-.282.802.802 0 0 1-.094-.378V23.13a.657.657 0 0 1 .282-.566.619.619 0 0 1 .353-.11v-2.085l.371-.434.018 2.8h-.163a.405.405 0 0 0-.292.126.438.438 0 0 0-.12.303v2.818a.806.806 0 0 0 .226.557l.293.298-.363.493a.8.8 0 0 0-.152.473v2.983a.378.378 0 0 0 .106.262.354.354 0 0 0 .116.08c.014.005.028.01.042.013a.904.904 0 0 0 .126.014h.197v2.706l-3.74-.065-.128-.356Z"/><path fill="url(#A)" d="M35.591 25.426v-4.133l-1.976-2.063-3.94.338L28 21.994v4.218c0 .182-.09.356-.249.484l-.123.099.244.2c.156.127.243.3.243.48v3.61l1.284 2.852h4.06l2.128-2.085v-3.921c0-.205.095-.402.265-.551l.659-.58v-.002l-.753-.922a.708.708 0 0 1-.167-.45Zm-2.41 5.113v.057h-.002c-.052.693-1.04.657-1.04.657h.008-.003l-1.36-.041v-.003a.435.435 0 0 1-.222-.124.313.313 0 0 1-.087-.21V27.51c0-.207.116-.401.313-.53l.319-.286-.442-.4a.61.61 0 0 1-.19-.432V21.94c0-.092.045-.182.125-.247a.48.48 0 0 1 .302-.102l1.265-.096a.468.468 0 0 0-.027-.003s.978-.084.978.848v3.786c0 .16-.069.314-.195.436l-.136.132.275.376a.585.585 0 0 1 .119.348v3.122Z"/><path fill="url(#B)" d="M35.591 25.55v-3.748l-2.073-2.17-3.764.338L28 22.438v3.836c0 .166-.09.324-.249.44l-.123.089.244.181a.55.55 0 0 1 .243.435v3.264l1.429 2.635h3.928l2.115-1.94v-3.556c0-.186.095-.364.265-.5l.659-.526v-.002l-.753-.835a.608.608 0 0 1-.167-.409Zm-2.41 4.637v.052h-.002c-.052.629-1.04.596-1.04.596h.008-.003l-1.36-.037v-.002a.449.449 0 0 1-.222-.113.271.271 0 0 1-.087-.19V27.44c0-.188.116-.364.313-.481l.289-.245-.412-.378a.53.53 0 0 1-.19-.39v-3.558c0-.084.045-.165.125-.224a.513.513 0 0 1 .302-.093l1.265-.087-.027-.003s.978-.075.978.77v3.433a.528.528 0 0 1-.195.395l-.136.12.275.341a.5.5 0 0 1 .119.316v2.831Z"/><path fill="url(#C)" d="m23.025 29.457-3.042-8.575.272-.36 2.77 8.665v.27Z"/><path fill="url(#D)" d="m35.215 31.723.057-4.05c0-.16.161-.478.314-.595l.476-.335-.541-.585a.577.577 0 0 1-.192-.431l-.053-4.271.319-.166.054 4.236c0 .08.018.158.05.231.034.074.763 1.01.823 1.065-.083.105-.873.786-.873.918l-.059 4.11-.376-.128Z"/><path fill="url(#E)" d="m30.808 30.57.006.007c.126.132.435.244.475.241h-.052s-.891.125-.937-.495V27.37a.53.53 0 0 1 .105-.313l.246-.336-.121-.119a.545.545 0 0 1-.174-.392v-3.385c-.056-.987.836-.772.836-.772l-.024.003c-.098.014-.429.099-.429.367v3.61c0 .114.044.226.126.318l.291.326-.31.422a.527.527 0 0 0-.107.315v2.95a.294.294 0 0 0 .07.207Z"/><path fill="url(#F)" d="m38.201 22.101 1.972-1.646 2.185.787-.804-2.245 1.522-2.186-2.415.023-1.436-1.974-.693 2.477-2.276.902 1.93 1.39.015 2.472Z"/><path fill="url(#G)" d="M43.233 21.514a.364.364 0 0 0-.2-.083l-.839-2.443 1.444-2.163-.617-.027-1.508 2.177.777 2.173-2.105-.763-1.898 1.59-.016-2.392-1.88-1.364-.618.241 2.036 1.43.02 2.604a.405.405 0 0 0-.178.142.442.442 0 0 0-.08.22c-.008.08.005.16.038.23a.396.396 0 0 0 .144.161c.061.039.13.058.202.057l.158-.032a.421.421 0 0 0 .218-.232.444.444 0 0 0 .024-.236l-.006-.036 1.943-1.643 2.303.739c0 .02.004.039.01.058a.418.418 0 0 0 .093.205.39.39 0 0 0 .286.137l.135-.028a.398.398 0 0 0 .16-.11.446.446 0 0 0 .08-.435.413.413 0 0 0-.128-.183l.002.006Z"/><path fill="#FED6A4" d="M44.014 16.31a.375.375 0 0 0-.103-.14.367.367 0 0 0-.321-.084l-.016-.004a.411.411 0 0 0-.304.269l-2.413.133-1.409-1.98a.421.421 0 0 0-.016-.405.392.392 0 0 0-.246-.176.376.376 0 0 0-.346.102.424.424 0 0 0-.004.606l-.668 2.407-2.24.826a.38.38 0 0 0-.518-.053.416.416 0 0 0-.166.303v.012a.423.423 0 0 0 .062.241.383.383 0 0 0 .245.176.414.414 0 0 0 .14.002l.225-.089.482-.189 2.188-.858.67-2.345 1.376 1.864 2.32-.027.648-.014.1-.001a.385.385 0 0 0 .204-.094.414.414 0 0 0 .105-.143.418.418 0 0 0 .006-.338Z"/></g></g><defs><linearGradient id="c" x1="7.66" x2="7.66" y1="25.142" y2=".987" gradientUnits="userSpaceOnUse"><stop stop-color="#F0BD73"/><stop offset="1" stop-color="#FED6A4"/></linearGradient><linearGradient id="d" x1="7.658" x2="7.658" y1="20.78" y2="2.063" gradientUnits="userSpaceOnUse"><stop stop-color="#FFEAD2"/><stop offset=".53" stop-color="#FC3"/><stop offset="1" stop-color="#ED972F"/></linearGradient><linearGradient id="e" x1="3.201" x2="3.201" y1="15.294" y2="1.709" gradientUnits="userSpaceOnUse"><stop stop-color="#F3BF75"/><stop offset="1" stop-color="#C08029"/></linearGradient><linearGradient id="f" x1="17.887" x2="17.887" y1="23.126" y2="2.544" gradientUnits="userSpaceOnUse"><stop stop-color="#F0BD73"/><stop offset="1" stop-color="#FED6A4"/></linearGradient><linearGradient id="g" x1="17.886" x2="17.886" y1="21.461" y2="3.067" gradientUnits="userSpaceOnUse"><stop stop-color="#FFEAD2"/><stop offset=".53" stop-color="#FC3"/><stop offset="1" stop-color="#ED972F"/></linearGradient><linearGradient id="h" x1="17.968" x2="17.968" y1="16.563" y2="3.38" gradientUnits="userSpaceOnUse"><stop stop-color="#F3BF75"/><stop offset="1" stop-color="#C08029"/></linearGradient><linearGradient id="i" x1="24.456" x2="24.456" y1="22.599" y2="2.874" gradientUnits="userSpaceOnUse"><stop stop-color="#F0BD73"/><stop offset="1" stop-color="#FED6A4"/></linearGradient><linearGradient id="j" x1="24.241" x2="24.241" y1="21.79" y2="3.725" gradientUnits="userSpaceOnUse"><stop stop-color="#FFEAD2"/><stop offset=".53" stop-color="#FC3"/><stop offset="1" stop-color="#ED972F"/></linearGradient><linearGradient id="k" x1="24.566" x2="24.566" y1="17.901" y2="3.852" gradientUnits="userSpaceOnUse"><stop stop-color="#F3BF75"/><stop offset="1" stop-color="#C08029"/></linearGradient><linearGradient id="l" x1="32.513" x2="32.513" y1="21.236" y2="3.873" gradientUnits="userSpaceOnUse"><stop stop-color="#F0BD73"/><stop offset="1" stop-color="#FED6A4"/></linearGradient><linearGradient id="m" x1="33.684" x2="33.684" y1="22.749" y2="4.726" gradientUnits="userSpaceOnUse"><stop stop-color="#FFEAD2"/><stop offset=".53" stop-color="#FC3"/><stop offset="1" stop-color="#ED972F"/></linearGradient><linearGradient id="n" x1="33.232" x2="33.232" y1="18.131" y2="4.753" gradientUnits="userSpaceOnUse"><stop stop-color="#F3BF75"/><stop offset="1" stop-color="#C08029"/></linearGradient><linearGradient id="o" x1="32.572" x2="32.572" y1="17.99" y2="4.832" gradientUnits="userSpaceOnUse"><stop stop-color="#F2BF75"/><stop offset="1" stop-color="#C0812B"/></linearGradient><linearGradient id="p" x1="7.309" x2="7.048" y1="33.604" y2="22.626" gradientUnits="userSpaceOnUse"><stop stop-color="#EE972D"/><stop offset=".47" stop-color="#FFCD34"/><stop offset="1" stop-color="#FFEAD3"/></linearGradient><linearGradient id="q" x1="5.67" x2="5.67" y1="33.918" y2="22.813" gradientUnits="userSpaceOnUse"><stop stop-color="#F3A52C"/><stop offset="1" stop-color="#C0812B"/></linearGradient><linearGradient id="r" x1="6.834" x2="6.834" y1="33.858" y2="22.128" gradientUnits="userSpaceOnUse"><stop stop-color="#F2BF75"/><stop offset="1" stop-color="#C0812B"/></linearGradient><linearGradient id="s" x1="8.728" x2="8.728" y1="34.223" y2="23.414" gradientUnits="userSpaceOnUse"><stop stop-color="#F2BF75"/><stop offset="1" stop-color="#C0812B"/></linearGradient><linearGradient id="t" x1="13.36" x2="13.36" y1="37.579" y2="21.647" gradientUnits="userSpaceOnUse"><stop stop-color="#F0BD73"/><stop offset="1" stop-color="#FED6A4"/></linearGradient><linearGradient id="u" x1="13.36" x2="13.36" y1="33.245" y2="22.052" gradientUnits="userSpaceOnUse"><stop stop-color="#ED972F"/><stop offset=".47" stop-color="#FC3"/><stop offset="1" stop-color="#FFE4AD"/></linearGradient><linearGradient id="v" x1="13.296" x2="13.296" y1="32.498" y2="22.294" gradientUnits="userSpaceOnUse"><stop stop-color="#F3BF75"/><stop offset="1" stop-color="#C08029"/></linearGradient><linearGradient id="w" x1="21.496" x2="21.496" y1="37.755" y2="20.621" gradientUnits="userSpaceOnUse"><stop stop-color="#F0BD73"/><stop offset="1" stop-color="#FED6A4"/></linearGradient><linearGradient id="x" x1="21.489" x2="21.492" y1="33.451" y2="21.841" gradientUnits="userSpaceOnUse"><stop stop-color="#ED972F"/><stop offset=".47" stop-color="#FC3"/><stop offset="1" stop-color="#FFDC82"/></linearGradient><linearGradient id="y" x1="18.817" x2="18.817" y1="31.869" y2="21.664" gradientUnits="userSpaceOnUse"><stop stop-color="#F3BF75"/><stop offset="1" stop-color="#C08029"/></linearGradient><linearGradient id="z" x1="24.371" x2="24.371" y1="33.051" y2="21.39" gradientUnits="userSpaceOnUse"><stop stop-color="#F2BF75"/><stop offset="1" stop-color="#C0812B"/></linearGradient><linearGradient id="A" x1="32.072" x2="32.072" y1="37.277" y2="20.019" gradientUnits="userSpaceOnUse"><stop stop-color="#F0BD73"/><stop offset="1" stop-color="#FED6A4"/></linearGradient><linearGradient id="B" x1="33.559" x2="31.955" y1="30.64" y2="20.528" gradientUnits="userSpaceOnUse"><stop stop-color="#ED972F"/><stop offset=".47" stop-color="#FC3"/><stop offset="1" stop-color="#FFD76C"/></linearGradient><linearGradient id="C" x1="20.438" x2="20.438" y1="31.883" y2="22.149" gradientUnits="userSpaceOnUse"><stop stop-color="#F2BF75"/><stop offset="1" stop-color="#C0812B"/></linearGradient><linearGradient id="D" x1="32.742" x2="32.742" y1="29.728" y2="20.686" gradientUnits="userSpaceOnUse"><stop stop-color="#F2BF75"/><stop offset="1" stop-color="#C0812B"/></linearGradient><linearGradient id="E" x1="30.762" x2="30.762" y1="30.016" y2="20.919" gradientUnits="userSpaceOnUse"><stop stop-color="#F2BF75"/><stop offset="1" stop-color="#C0812B"/></linearGradient><linearGradient id="F" x1="37.501" x2="41.623" y1="15.499" y2="20.099" gradientUnits="userSpaceOnUse"><stop stop-color="#FFEAD3"/><stop offset=".53" stop-color="#FFCD34"/><stop offset="1" stop-color="#EE972D"/></linearGradient><linearGradient id="G" x1="37.903" x2="43.645" y1="16.088" y2="19.794" gradientUnits="userSpaceOnUse"><stop stop-color="#F2BF75"/><stop offset="1" stop-color="#C0812B"/></linearGradient><clipPath id="a"><use xlink:href="#H"/></clipPath><clipPath id="b"><use xlink:href="#H"/></clipPath></defs></svg>