<svg viewBox="0 0 16 16" fill="none" xmlns="http://www.w3.org/2000/svg"><g clip-path="url(#a)"><path d="M13.975 9.293a1.86 1.86 0 0 0 .118-.422 1.824 1.824 0 0 0-.348-1.36 1.837 1.837 0 0 0-2.567-.366 2.94 2.94 0 0 0-.733.818 2.947 2.947 0 0 0-.734-.818 1.824 1.824 0 0 0-1.359-.349 1.83 1.83 0 0 0-1.208.715 1.822 1.822 0 0 0-.348 1.36c.021.147.065.287.119.422-.78.21-1.36.917-1.36 1.763v3.055H1.89V4.945c0-.338.275-.612.611-.612h6.111c.337 0 .612.274.612.612v.682c.436.09.854.265 1.222.54V4.945a1.836 1.836 0 0 0-1.834-1.834h-1.58L8.28 1.863 7.415.999 6.167 2.247V.667H4.945v1.58L3.696 1l-.864.864L4.081 3.11H2.5A1.836 1.836 0 0 0 .666 4.944v10.388h14.667v-4.277a1.83 1.83 0 0 0-1.36-1.763Zm-2.064-1.17a.609.609 0 0 1 .972.576.608.608 0 0 1-.239.402 1.203 1.203 0 0 1-.225.122H11.2c.121-.373.335-.818.71-1.1Zm-3.788.122a.61.61 0 0 1 .856-.123c.375.282.589.727.71 1.1H8.47a1.165 1.165 0 0 1-.226-.123.607.607 0 0 1-.122-.854Zm-1.345 2.811a.61.61 0 0 1 .611-.61h2.445v3.666H6.778v-3.056Zm7.333 3.056h-3.055l-.002-3.667H13.5c.337 0 .611.274.611.611v3.056Z" fill="url(#b)"/></g><defs><linearGradient id="b" x1="8" y1=".667" x2="8" y2="15.333" gradientUnits="userSpaceOnUse"><stop offset=".453" stop-color="#FFEAD2"/><stop offset=".641" stop-color="#EDA82F"/></linearGradient><clipPath id="a"><path fill="#fff" d="M0 0h16v16H0z"/></clipPath></defs></svg>