<svg viewBox="0 0 16 16" fill="none" xmlns="http://www.w3.org/2000/svg"><path fill-rule="evenodd" clip-rule="evenodd" d="M12.614 9.152c-.148.111-.234.054-.265-.131-.045-.261-.219-.372-.476-.298a1.197 1.197 0 0 0-.18.07c-.474.211-.84.559-1.185.934-.209.227-.298.154-.4.068-.099-.081-.209-.173-.447-.026a4.18 4.18 0 0 0-.235.158c-.306.213-.584.408-1.034.278-.44-.126-.622-.267-.549-.783a2.61 2.61 0 0 1 .318-.889c.552-.98 1.155-1.767 2.21-1.362.667.257 1-.43 1.251-.948.03-.063.06-.124.089-.18.075-.147.168-.172.31-.101.343.171.77.353 1.078.024.32-.341.598-.745.87-1.139.107-.156.213-.31.32-.458l.053.05a.65.65 0 0 0 .259.176c.1.028.211.025.327.004.23-.042.37-.194.386-.411a3.926 3.926 0 0 0-.01-.869 1.339 1.339 0 0 0-.238-.543c-.219-.314-.545-.51-.886-.667C8.76-.36.667 3.301.667 9.727c0 3.62 2.813 4.792 5.672 4.792 2.958 0 6.875-1.522 7.983-4.474.134-.356.181-.718.157-1.092a1.344 1.344 0 0 0-.287-.78c-.291-.36-.67-.36-.929.018l-.008.012a1.417 1.417 0 0 0-.06.1 3.736 3.736 0 0 0-.09.178c-.045.091-.09.183-.145.267a2.77 2.77 0 0 1-.135.192 1.205 1.205 0 0 1-.21.212Zm-10.772.575c0 1.458.54 2.284 1.264 2.793.789.554 1.935.825 3.233.825s2.836-.34 4.157-1.005c1.042-.525 1.872-1.212 2.382-2.02a1.235 1.235 0 0 1-1.13-.171 4.074 4.074 0 0 0-.273.269c-.15.155-.298.311-.483.425a1.375 1.375 0 0 1-.695.21 1.314 1.314 0 0 1-.325-.034c-.509.342-1.165.528-1.905.315-.218-.063-.717-.207-1.063-.645-.627-.793-.315-1.933.133-2.731.447-.794 1.402-2.033 2.396-2.167.202-.027.41-.011.605.05.324.1.335.077.442-.157a4.49 4.49 0 0 1 .084-.174c.101-.199.34-.568.826-.72.526-.165.74-.116.871-.086.19.043.204.046.751-.712.195-.27.388-.542.58-.814-4.644-2.116-11.85.96-11.85 6.549Z" fill="url(#a)"/><path fill-rule="evenodd" clip-rule="evenodd" d="M12.614 9.152c-.148.111-.234.054-.265-.131-.045-.261-.219-.372-.476-.298a1.197 1.197 0 0 0-.18.07c-.474.211-.84.559-1.185.934-.209.227-.298.154-.4.068-.099-.081-.209-.173-.447-.026a4.18 4.18 0 0 0-.235.158c-.306.213-.584.408-1.034.278-.44-.126-.622-.267-.549-.783a2.61 2.61 0 0 1 .318-.889c.552-.98 1.155-1.767 2.21-1.362.667.257 1-.43 1.251-.948.03-.063.06-.124.089-.18.075-.147.168-.172.31-.101.343.171.77.353 1.078.024.32-.341.598-.745.87-1.139.107-.156.213-.31.32-.458l.053.05a.65.65 0 0 0 .259.176c.1.028.211.025.327.004.23-.042.37-.194.386-.411a3.926 3.926 0 0 0-.01-.869 1.339 1.339 0 0 0-.238-.543c-.219-.314-.545-.51-.886-.667C8.76-.36.667 3.301.667 9.727c0 3.62 2.813 4.792 5.672 4.792 2.958 0 6.875-1.522 7.983-4.474.134-.356.181-.718.157-1.092a1.344 1.344 0 0 0-.287-.78c-.291-.36-.67-.36-.929.018l-.008.012a1.417 1.417 0 0 0-.06.1 3.736 3.736 0 0 0-.09.178c-.045.091-.09.183-.145.267a2.77 2.77 0 0 1-.135.192 1.205 1.205 0 0 1-.21.212Zm-10.772.575c0 1.458.54 2.284 1.264 2.793.789.554 1.935.825 3.233.825s2.836-.34 4.157-1.005c1.042-.525 1.872-1.212 2.382-2.02a1.235 1.235 0 0 1-1.13-.171 4.074 4.074 0 0 0-.273.269c-.15.155-.298.311-.483.425a1.375 1.375 0 0 1-.695.21 1.314 1.314 0 0 1-.325-.034c-.509.342-1.165.528-1.905.315-.218-.063-.717-.207-1.063-.645-.627-.793-.315-1.933.133-2.731.447-.794 1.402-2.033 2.396-2.167.202-.027.41-.011.605.05.324.1.335.077.442-.157a4.49 4.49 0 0 1 .084-.174c.101-.199.34-.568.826-.72.526-.165.74-.116.871-.086.19.043.204.046.751-.712.195-.27.388-.542.58-.814-4.644-2.116-11.85.96-11.85 6.549Z" fill="url(#b)" fill-opacity=".12" style="mix-blend-mode:overlay"/><defs><linearGradient id="a" x1="7.986" y1="1.333" x2="7.986" y2="14.519" gradientUnits="userSpaceOnUse"><stop stop-color="#78D747"/><stop offset=".585" stop-color="#58BC44"/><stop offset=".833" stop-color="#368B32"/></linearGradient><linearGradient id="b" x1="8" y1="1.333" x2="8" y2="18.506" gradientUnits="userSpaceOnUse"><stop offset=".372" stop-color="#fff"/><stop offset=".372" stop-color="#fff" stop-opacity="0"/></linearGradient></defs></svg>