<svg viewBox="0 0 16 16" fill="none" xmlns="http://www.w3.org/2000/svg"><g clip-path="url(#a)"><path d="M15.334 5.556a.622.622 0 0 0-.024-.168l-.716-2.505A3.069 3.069 0 0 0 11.656.667H4.344a3.07 3.07 0 0 0-2.938 2.216L.69 5.388a.624.624 0 0 0-.024.168c0 .618.231 1.183.611 1.615v5.718a2.447 2.447 0 0 0 2.445 2.444h3.666a2.447 2.447 0 0 0 2.445-2.444V7.672c.23-.133.436-.303.61-.501.449.508 1.104.83 1.834.83h.611c.211 0 .416-.028.611-.079v6.8a.611.611 0 1 0 1.223 0V7.171c.38-.431.61-.997.61-1.615ZM7.389 14.11H3.723A1.223 1.223 0 0 1 2.5 12.89v-1.222h6.111v1.222c0 .674-.548 1.222-1.222 1.222Zm1.222-3.667h-6.11V7.922c.195.051.4.078.61.078h.612a2.44 2.44 0 0 0 1.833-.83c.448.51 1.104.83 1.833.83h1.222v2.444Zm3.667-3.666a1.223 1.223 0 0 1-1.222-1.222.611.611 0 1 0-1.222 0c0 .674-.549 1.222-1.223 1.222H7.39a1.223 1.223 0 0 1-1.222-1.222.611.611 0 0 0-1.222 0c0 .674-.548 1.222-1.222 1.222H3.11a1.22 1.22 0 0 1-1.22-1.145l.69-2.414a1.841 1.841 0 0 1 1.763-1.33h.6V3.11a.611.611 0 0 0 1.223 0V1.89h3.667v1.222a.61.61 0 1 0 1.222 0V1.89h.6c.814 0 1.54.547 1.763 1.33l.69 2.414a1.224 1.224 0 0 1-1.22 1.145h-.61Z" fill="url(#b)"/><path d="M15.334 5.556a.622.622 0 0 0-.024-.168l-.716-2.505A3.069 3.069 0 0 0 11.656.667H4.344a3.07 3.07 0 0 0-2.938 2.216L.69 5.388a.624.624 0 0 0-.024.168c0 .618.231 1.183.611 1.615v5.718a2.447 2.447 0 0 0 2.445 2.444h3.666a2.447 2.447 0 0 0 2.445-2.444V7.672c.23-.133.436-.303.61-.501.449.508 1.104.83 1.834.83h.611c.211 0 .416-.028.611-.079v6.8a.611.611 0 1 0 1.223 0V7.171c.38-.431.61-.997.61-1.615ZM7.389 14.11H3.723A1.223 1.223 0 0 1 2.5 12.89v-1.222h6.111v1.222c0 .674-.548 1.222-1.222 1.222Zm1.222-3.667h-6.11V7.922c.195.051.4.078.61.078h.612a2.44 2.44 0 0 0 1.833-.83c.448.51 1.104.83 1.833.83h1.222v2.444Zm3.667-3.666a1.223 1.223 0 0 1-1.222-1.222.611.611 0 1 0-1.222 0c0 .674-.549 1.222-1.223 1.222H7.39a1.223 1.223 0 0 1-1.222-1.222.611.611 0 0 0-1.222 0c0 .674-.548 1.222-1.222 1.222H3.11a1.22 1.22 0 0 1-1.22-1.145l.69-2.414a1.841 1.841 0 0 1 1.763-1.33h.6V3.11a.611.611 0 0 0 1.223 0V1.89h3.667v1.222a.61.61 0 1 0 1.222 0V1.89h.6c.814 0 1.54.547 1.763 1.33l.69 2.414a1.224 1.224 0 0 1-1.22 1.145h-.61Z" fill="url(#c)" fill-opacity=".12" style="mix-blend-mode:overlay"/></g><defs><linearGradient id="b" x1="7.986" y1=".667" x2="7.986" y2="15.333" gradientUnits="userSpaceOnUse"><stop stop-color="#78D747"/><stop offset=".585" stop-color="#58BC44"/><stop offset=".833" stop-color="#368B32"/></linearGradient><linearGradient id="c" x1="8" y1=".667" x2="8" y2="19.767" gradientUnits="userSpaceOnUse"><stop offset=".372" stop-color="#fff"/><stop offset=".372" stop-color="#fff" stop-opacity="0"/></linearGradient><clipPath id="a"><path fill="#fff" d="M0 0h16v16H0z"/></clipPath></defs></svg>