<svg viewBox="0 0 16 16" fill="none" xmlns="http://www.w3.org/2000/svg"><g clip-path="url(#a)"><path d="m14.81 6.455-.48-.655a3.596 3.596 0 0 0-2.89-1.466H4.566a3.6 3.6 0 0 0-2.849 1.41l-.502.657a2.7 2.7 0 0 0 .335 3.628l4.883 4.71c.429.382.983.593 1.558.592a2.384 2.384 0 0 0 1.589-.611l4.85-4.665a2.683 2.683 0 0 0 .38-3.6Zm-1.466.065.48.656c.049.067.091.139.128.213h-2.928a4.038 4.038 0 0 0-.227-.856l-.392-.977h1.035a2.37 2.37 0 0 1 1.904.964Zm-5.352 6.423L6.3 9.11a2.836 2.836 0 0 1-.138-.5h3.637a2.66 2.66 0 0 1-.107.396l-1.7 3.936ZM6.226 7.389a2.93 2.93 0 0 1 .096-.323l.601-1.51H9.09l.573 1.431c.05.131.09.265.122.402H6.226ZM2.69 6.485a2.374 2.374 0 0 1 1.877-.93h1.039l-.418 1.057c-.1.251-.176.511-.224.777H2.037c.042-.086.093-.168.151-.244l.5-.66Zm-.306 2.648a1.45 1.45 0 0 1-.367-.522h2.917c.04.33.12.653.236.963l1.728 3.911-4.514-4.352Zm6.698 4.375 1.744-4.041c.1-.277.171-.564.21-.856h2.952c-.087.21-.219.398-.387.55l-4.52 4.347Z" fill="url(#b)"/><path d="m14.81 6.455-.48-.655a3.596 3.596 0 0 0-2.89-1.466H4.566a3.6 3.6 0 0 0-2.849 1.41l-.502.657a2.7 2.7 0 0 0 .335 3.628l4.883 4.71c.429.382.983.593 1.558.592a2.384 2.384 0 0 0 1.589-.611l4.85-4.665a2.683 2.683 0 0 0 .38-3.6Zm-1.466.065.48.656c.049.067.091.139.128.213h-2.928a4.038 4.038 0 0 0-.227-.856l-.392-.977h1.035a2.37 2.37 0 0 1 1.904.964Zm-5.352 6.423L6.3 9.11a2.836 2.836 0 0 1-.138-.5h3.637a2.66 2.66 0 0 1-.107.396l-1.7 3.936ZM6.226 7.389a2.93 2.93 0 0 1 .096-.323l.601-1.51H9.09l.573 1.431c.05.131.09.265.122.402H6.226ZM2.69 6.485a2.374 2.374 0 0 1 1.877-.93h1.039l-.418 1.057c-.1.251-.176.511-.224.777H2.037c.042-.086.093-.168.151-.244l.5-.66Zm-.306 2.648a1.45 1.45 0 0 1-.367-.522h2.917c.04.33.12.653.236.963l1.728 3.911-4.514-4.352Zm6.698 4.375 1.744-4.041c.1-.277.171-.564.21-.856h2.952c-.087.21-.219.398-.387.55l-4.52 4.347Z" fill="url(#c)" fill-opacity=".12" style="mix-blend-mode:overlay"/><path d="M7.998 3.111a.611.611 0 0 0 .611-.61V1.277a.611.611 0 0 0-1.222 0V2.5a.611.611 0 0 0 .611.611Z" fill="url(#d)"/><path d="M7.998 3.111a.611.611 0 0 0 .611-.61V1.277a.611.611 0 0 0-1.222 0V2.5a.611.611 0 0 0 .611.611Z" fill="url(#e)" fill-opacity=".12" style="mix-blend-mode:overlay"/><path d="M10.78 3.05a.612.612 0 0 0 .824-.277l.61-1.222a.61.61 0 1 0-1.093-.546l-.611 1.222a.612.612 0 0 0 .27.823Z" fill="url(#f)"/><path d="M10.78 3.05a.612.612 0 0 0 .824-.277l.61-1.222a.61.61 0 1 0-1.093-.546l-.611 1.222a.612.612 0 0 0 .27.823Z" fill="url(#g)" fill-opacity=".12" style="mix-blend-mode:overlay"/><path d="M4.396 2.773a.613.613 0 0 0 1.097-.546l-.611-1.222a.611.611 0 0 0-1.094.546l.608 1.222Z" fill="url(#h)"/><path d="M4.396 2.773a.613.613 0 0 0 1.097-.546l-.611-1.222a.611.611 0 0 0-1.094.546l.608 1.222Z" fill="url(#i)" fill-opacity=".12" style="mix-blend-mode:overlay"/></g><defs><linearGradient id="b" x1="7.986" y1=".667" x2="7.986" y2="15.331" gradientUnits="userSpaceOnUse"><stop stop-color="#78D747"/><stop offset=".585" stop-color="#58BC44"/><stop offset=".833" stop-color="#368B32"/></linearGradient><linearGradient id="c" x1="8" y1=".667" x2="8" y2="19.764" gradientUnits="userSpaceOnUse"><stop offset=".372" stop-color="#fff"/><stop offset=".372" stop-color="#fff" stop-opacity="0"/></linearGradient><linearGradient id="d" x1="7.986" y1=".667" x2="7.986" y2="15.331" gradientUnits="userSpaceOnUse"><stop stop-color="#78D747"/><stop offset=".585" stop-color="#58BC44"/><stop offset=".833" stop-color="#368B32"/></linearGradient><linearGradient id="e" x1="8" y1=".667" x2="8" y2="19.764" gradientUnits="userSpaceOnUse"><stop offset=".372" stop-color="#fff"/><stop offset=".372" stop-color="#fff" stop-opacity="0"/></linearGradient><linearGradient id="f" x1="7.986" y1=".667" x2="7.986" y2="15.331" gradientUnits="userSpaceOnUse"><stop stop-color="#78D747"/><stop offset=".585" stop-color="#58BC44"/><stop offset=".833" stop-color="#368B32"/></linearGradient><linearGradient id="g" x1="8" y1=".667" x2="8" y2="19.764" gradientUnits="userSpaceOnUse"><stop offset=".372" stop-color="#fff"/><stop offset=".372" stop-color="#fff" stop-opacity="0"/></linearGradient><linearGradient id="h" x1="7.986" y1=".667" x2="7.986" y2="15.331" gradientUnits="userSpaceOnUse"><stop stop-color="#78D747"/><stop offset=".585" stop-color="#58BC44"/><stop offset=".833" stop-color="#368B32"/></linearGradient><linearGradient id="i" x1="8" y1=".667" x2="8" y2="19.764" gradientUnits="userSpaceOnUse"><stop offset=".372" stop-color="#fff"/><stop offset=".372" stop-color="#fff" stop-opacity="0"/></linearGradient><clipPath id="a"><path fill="#fff" d="M0 0h16v16H0z"/></clipPath></defs></svg>