<svg viewBox="0 0 16 17" fill="none" xmlns="http://www.w3.org/2000/svg"><path d="m14.796 6.7-4.635-4.64a3.06 3.06 0 0 0-4.322 0L1.204 6.7a1.821 1.821 0 0 0-.537 1.296V14A1.835 1.835 0 0 0 2.5 15.833h11A1.833 1.833 0 0 0 15.333 14V7.996a1.824 1.824 0 0 0-.537-1.297Zm-4.963 7.91H6.167v-2.405a1.835 1.835 0 0 1 3.13-1.297c.343.344.536.81.536 1.297v2.405Zm4.278-.61a.611.611 0 0 1-.611.611h-2.444v-2.405A3.058 3.058 0 0 0 8 9.147a3.055 3.055 0 0 0-3.056 3.058v2.405H2.5a.61.61 0 0 1-.611-.61V7.996c0-.162.065-.317.179-.432l4.635-4.637a1.838 1.838 0 0 1 2.594 0l4.635 4.639a.62.62 0 0 1 .18.43V14Z" fill="url(#a)"/><defs><linearGradient id="a" x1="8" y1="1.167" x2="8" y2="15.833" gradientUnits="userSpaceOnUse"><stop stop-color="#FFEAD2"/><stop offset="1" stop-color="#A36022"/></linearGradient></defs></svg>