<svg width="16" height="16" viewBox="0 0 16 16" fill="none" xmlns="http://www.w3.org/2000/svg">
<path d="M7.99992 0.333496C6.4836 0.333496 5.00133 0.783138 3.74055 1.62556C2.47977 2.46799 1.49712 3.66536 0.916846 5.06626C0.336574 6.46716 0.184748 8.00867 0.480568 9.49585C0.776388 10.983 1.50657 12.3491 2.57877 13.4213C3.65097 14.4935 5.01704 15.2237 6.50423 15.5195C7.99142 15.8153 9.53293 15.6635 10.9338 15.0832C12.3347 14.503 13.5321 13.5203 14.3745 12.2595C15.2169 10.9988 15.6666 9.51649 15.6666 8.00016C15.6644 5.96751 14.8559 4.01874 13.4186 2.58144C11.9813 1.14414 10.0326 0.335695 7.99992 0.333496ZM14.3888 8.00016C14.388 8.40766 14.3482 8.81414 14.27 9.21405L13.0356 8.84349C13.1362 8.28577 13.1362 7.71456 13.0356 7.15683L14.27 6.78627C14.3482 7.18619 14.388 7.59267 14.3888 8.00016ZM13.9033 5.56216L12.6702 5.93208C12.1535 4.77335 11.2267 3.84654 10.068 3.32988L10.4379 2.09683C12.0054 2.74882 13.2513 3.99464 13.9033 5.56216ZM7.99992 11.8335C7.24176 11.8335 6.50062 11.6087 5.87024 11.1875C5.23985 10.7662 4.74852 10.1676 4.45838 9.46711C4.16825 8.76666 4.09233 7.99591 4.24024 7.25232C4.38815 6.50872 4.75324 5.82569 5.28935 5.28959C5.82545 4.75349 6.50848 4.3884 7.25208 4.24049C7.99567 4.09258 8.76642 4.16849 9.46687 4.45862C10.1673 4.74876 10.766 5.24009 11.1872 5.87048C11.6084 6.50086 11.8333 7.242 11.8333 8.00016C11.8322 9.01651 11.428 9.99095 10.7094 10.7096C9.99071 11.4283 9.01627 11.8325 7.99992 11.8335ZM9.21381 1.73011L8.84325 2.96444C8.28552 2.86392 7.71432 2.86392 7.15659 2.96444L6.78603 1.73011C7.58754 1.57171 8.4123 1.57171 9.21381 1.73011ZM5.56192 2.09683L5.93184 3.32988C4.77311 3.84654 3.8463 4.77335 3.32964 5.93208L2.09659 5.56216C2.74858 3.99464 3.9944 2.74882 5.56192 2.09683ZM1.61103 8.00016C1.61184 7.59267 1.65163 7.18619 1.72987 6.78627L2.9642 7.15683C2.86368 7.71456 2.86368 8.28577 2.9642 8.84349L1.72987 9.21405C1.65163 8.81414 1.61184 8.40766 1.61103 8.00016ZM2.09659 10.4382L3.32964 10.0682C3.8463 11.227 4.77311 12.1538 5.93184 12.6704L5.56192 13.9035C3.9944 13.2515 2.74858 12.0057 2.09659 10.4382ZM6.78603 14.2715L7.15659 13.0372C7.71432 13.1377 8.28552 13.1377 8.84325 13.0372L9.21381 14.2715C8.4123 14.4299 7.58754 14.4299 6.78603 14.2715ZM10.4379 13.9041L10.068 12.6717C11.2267 12.1551 12.1535 11.2283 12.6702 10.0695L13.9033 10.4394C13.2511 12.0064 12.0053 13.2516 10.4379 13.9029V13.9041ZM7.99992 5.44461L9.91659 8.00016L7.99992 10.5557L6.08325 8.00016L7.99992 5.44461Z" fill="url(#paint0_linear_21663_39098)"/>
<defs>
<linearGradient id="paint0_linear_21663_39098" x1="7.99992" y1="0.333496" x2="7.99992" y2="15.6668" gradientUnits="userSpaceOnUse">
<stop stop-color="#FFEAD2"/>
<stop offset="1" stop-color="#A36022"/>
</linearGradient>
</defs>
</svg>
