<svg width="16" height="16" viewBox="0 0 16 16" fill="none" xmlns="http://www.w3.org/2000/svg">
<path d="M14.7793 8.91702C14.7793 5.77311 10.5147 2.11713 9.207 1.0716C8.88128 0.80944 8.47572 0.666504 8.05759 0.666504C7.63947 0.666504 7.23391 0.80944 6.90819 1.0716C5.60113 2.11713 1.33592 5.7725 1.33592 8.91702C1.29817 9.92919 1.66263 10.9151 2.34964 11.6594C3.03665 12.4037 3.99034 12.8457 5.00229 12.8889C5.90223 12.8671 6.76042 12.5048 7.40376 11.8752C7.29377 13.3808 6.90574 14.111 5.61335 14.111H3.78016V15.3332H12.335V14.111H10.5018C9.20945 14.111 8.82142 13.3778 8.71143 11.8752C9.35477 12.5048 10.213 12.8671 11.1129 12.8889C12.1248 12.8457 13.0785 12.4037 13.7655 11.6594C14.4526 10.9151 14.817 9.92919 14.7793 8.91702ZM8.03987 14.111C8.04537 14.1013 8.0521 14.0921 8.05759 14.0823C8.06309 14.0921 8.06982 14.1013 8.07532 14.111H8.03987ZM8.60449 9.78229L8.05759 8.6891L7.51069 9.78229C7.50153 9.80123 6.52627 11.6668 5.00229 11.6668C4.31467 11.6232 3.6721 11.3098 3.21435 10.7949C2.75661 10.2799 2.52073 9.60501 2.55804 8.91702C2.55804 6.84919 5.31271 3.91304 7.6714 2.02669C7.78046 1.93775 7.91687 1.88918 8.05759 1.88918C8.19832 1.88918 8.33473 1.93775 8.44379 2.02669C10.8025 3.91304 13.5571 6.8498 13.5571 8.91702C13.5945 9.60501 13.3586 10.2799 12.9008 10.7949C12.4431 11.3098 11.8005 11.6232 11.1129 11.6668C9.57669 11.6668 8.61305 9.7994 8.60755 9.78229H8.60449Z" fill="url(#paint0_linear_21663_39100)"/>
<defs>
<linearGradient id="paint0_linear_21663_39100" x1="8.05759" y1="0.666504" x2="8.05759" y2="15.3332" gradientUnits="userSpaceOnUse">
<stop stop-color="#FFEAD2"/>
<stop offset="1" stop-color="#A36022"/>
</linearGradient>
</defs>
</svg>
