<svg width="16" height="16" viewBox="0 0 16 16" fill="none" xmlns="http://www.w3.org/2000/svg">
<g clip-path="url(#clip0_21663_39102)">
<path d="M7.25453 11.6586L6.16064 11.1128L8.93325 5.55478H5.55564V4.33256H10.4445V5.26267L7.25453 11.6586ZM15.3334 7.99984C15.3334 3.95611 12.0438 0.666504 8.00008 0.666504C3.95636 0.666504 0.666748 3.95611 0.666748 7.99984C0.666748 12.0436 3.95636 15.3332 8.00008 15.3332C12.0438 15.3332 15.3334 12.0436 15.3334 7.99984ZM14.1112 7.99984C14.1112 11.3695 11.3697 14.1109 8.00008 14.1109C4.63041 14.1109 1.88897 11.3695 1.88897 7.99984C1.88897 4.63017 4.63041 1.88873 8.00008 1.88873C11.3697 1.88873 14.1112 4.63017 14.1112 7.99984Z" fill="url(#paint0_linear_21663_39102)"/>
</g>
<defs>
<linearGradient id="paint0_linear_21663_39102" x1="8.00008" y1="0.666504" x2="8.00008" y2="15.3332" gradientUnits="userSpaceOnUse">
<stop stop-color="#FFEAD2"/>
<stop offset="1" stop-color="#A36022"/>
</linearGradient>
<clipPath id="clip0_21663_39102">
<rect width="16" height="16" fill="white"/>
</clipPath>
</defs>
</svg>
