<svg viewBox="0 0 16 16" fill="none" xmlns="http://www.w3.org/2000/svg"><path d="M8 .667A7.333 7.333 0 1 0 15.333 8 7.341 7.341 0 0 0 8 .667Zm5.027 3.867a6.07 6.07 0 0 1 1.067 3.136l-1.672-1.178.605-1.958Zm-3.37-2.41L8 3.328 6.343 2.124a5.966 5.966 0 0 1 3.313 0Zm-.13 5.3-.581 1.798H7.05l-.58-1.799L8 6.311l1.527 1.112Zm-5.95-.932L1.905 7.67a6.074 6.074 0 0 1 1.066-3.136l.606 1.958Zm-.462 5.166 2.124.009.663 2.065a6.132 6.132 0 0 1-2.787-2.074Zm4.178 2.409L6.13 10.444l-3.735-.01a6.058 6.058 0 0 1-.402-1.33L5.005 6.98 3.92 3.463a6.136 6.136 0 0 1 1.1-.794l2.953 2.153-2.94 2.14 1.133 3.482h3.667l1.134-3.488-2.941-2.134 2.956-2.15c.395.223.764.489 1.1.794L10.994 6.98l3.014 2.123a6.052 6.052 0 0 1-.403 1.33l-3.737.011-1.16 3.623c-.47.06-.946.06-1.415 0Zm2.804-.335.664-2.065 2.123-.007a6.124 6.124 0 0 1-2.787 2.072Z" fill="url(#a)"/><defs><linearGradient id="a" x1="8" y1=".667" x2="8" y2="15.333" gradientUnits="userSpaceOnUse"><stop stop-color="#DADADA"/><stop offset="1" stop-color="#535353"/></linearGradient></defs></svg>