<svg viewBox="0 0 16 16" fill="none" xmlns="http://www.w3.org/2000/svg"><path d="M12.278 15.333H3.723a3.06 3.06 0 0 1-3.056-3.055V3.722A3.06 3.06 0 0 1 3.723.667h8.555a3.06 3.06 0 0 1 3.056 3.055v8.556a3.06 3.06 0 0 1-3.056 3.055ZM3.723 1.89a1.833 1.833 0 0 0-1.834 1.833v8.556a1.833 1.833 0 0 0 1.834 1.833h8.555a1.834 1.834 0 0 0 1.833-1.833V3.722a1.833 1.833 0 0 0-1.833-1.833H3.723Zm2.653 9.17a1.448 1.448 0 0 1-1.248-.719 1.413 1.413 0 0 1-.188-.714V6.374a1.428 1.428 0 0 1 2.139-1.24l3.225 1.61a1.427 1.427 0 0 1 .03 2.496L7.05 10.882a1.344 1.344 0 0 1-.673.177Zm-.015-4.89a.2.2 0 0 0-.199.204v3.253a.206.206 0 0 0 .306.18l3.285-1.643A.192.192 0 0 0 9.826 8a.199.199 0 0 0-.103-.178L6.5 6.212a.282.282 0 0 0-.14-.042Z" fill="url(#a)"/><defs><linearGradient id="a" x1="8" y1=".667" x2="8" y2="15.333" gradientUnits="userSpaceOnUse"><stop stop-color="#DADADA"/><stop offset="1" stop-color="#535353"/></linearGradient></defs></svg>