<svg viewBox="0 0 16 16" fill="none" xmlns="http://www.w3.org/2000/svg"><path d="M14.238 3.521C13.691 2.61 12.717 2 11.621 2H4.318c-1.095 0-2.069.609-2.616 1.521A8.162 8.162 0 0 0 .667 7.477c0 3.347 1.339 6.086 3.043 6.086.913 0 1.643-.852 2.19-2.617.062-.243.305-.426.61-.426h2.98c.244 0 .487.183.609.426.548 1.765 1.278 2.617 2.19 2.617 1.705 0 3.044-2.739 3.044-6.086a8.96 8.96 0 0 0-1.096-3.956Zm-2.008 8.825c-.183 0-.609-.487-1.035-1.765-.243-.791-.973-1.278-1.765-1.278H6.51c-.792 0-1.522.548-1.766 1.278-.426 1.278-.852 1.765-1.034 1.765-.609 0-1.826-1.887-1.826-4.869 0-1.156.304-2.312.852-3.347.365-.548.974-.913 1.582-.913h7.303c.609 0 1.217.365 1.583.913a7.196 7.196 0 0 1 .852 3.347c0 2.982-1.217 4.869-1.826 4.869Z" fill="url(#a)"/><path d="M6.167 5.948h-.611v-.611c0-.367-.245-.611-.611-.611-.367 0-.611.244-.611.611v.611h-.611c-.367 0-.612.245-.612.611 0 .367.245.611.612.611h.61v.611c0 .367.245.612.612.612.366 0 .61-.245.61-.612v-.61h.612c.367 0 .611-.245.611-.612 0-.366-.244-.61-.611-.61Z" fill="url(#b)"/><path d="M11.973 6.56a.917.917 0 1 0 0-1.834.917.917 0 0 0 0 1.833Z" fill="url(#c)"/><path d="M10.14 8.393a.917.917 0 1 0 0-1.834.917.917 0 0 0 0 1.834Z" fill="url(#d)"/><defs><linearGradient id="a" x1="8" y1="2" x2="8" y2="13.563" gradientUnits="userSpaceOnUse"><stop stop-color="#DADADA"/><stop offset="1" stop-color="#535353"/></linearGradient><linearGradient id="b" x1="8" y1="2" x2="8" y2="13.563" gradientUnits="userSpaceOnUse"><stop stop-color="#DADADA"/><stop offset="1" stop-color="#535353"/></linearGradient><linearGradient id="c" x1="8" y1="2" x2="8" y2="13.563" gradientUnits="userSpaceOnUse"><stop stop-color="#DADADA"/><stop offset="1" stop-color="#535353"/></linearGradient><linearGradient id="d" x1="8" y1="2" x2="8" y2="13.563" gradientUnits="userSpaceOnUse"><stop stop-color="#DADADA"/><stop offset="1" stop-color="#535353"/></linearGradient></defs></svg>