<svg viewBox="0 0 16 16" fill="none" xmlns="http://www.w3.org/2000/svg"><path d="M9.875 10.444c4.026-.016 4.792-2.11 5.459-3.972a2.14 2.14 0 0 0-1.687-2.088c.177-.497.32-1.005.428-1.522A1.81 1.81 0 0 0 13.7 1.35a1.847 1.847 0 0 0-1.436-.682H3.737A1.847 1.847 0 0 0 1.94 2.064a1.81 1.81 0 0 0-.016.798c.108.517.251 1.025.428 1.522A2.139 2.139 0 0 0 .667 6.472c.667 2.195 1.432 3.956 5.46 3.972.022.13.036.26.04.39v2.055a1.15 1.15 0 0 1-1.222 1.222H3.723v1.222h8.555v-1.222h-1.217a1.152 1.152 0 0 1-1.227-1.222v-2.055c.004-.13.018-.26.04-.39Zm3.32-4.888a.917.917 0 0 1 .916.916C13.334 8 13.115 9.054 10.37 9.207c.108-.142.233-.27.372-.383a9.135 9.135 0 0 0 2.419-3.268h.035Zm-11.306.916a.917.917 0 0 1 .917-.916h.035a9.127 9.127 0 0 0 2.418 3.268c.14.113.264.241.373.383C2.886 9.054 2.3 7.869 1.889 6.472Zm6.722 4.362v2.055c-.006.426.096.847.298 1.222H7.092a2.49 2.49 0 0 0 .297-1.222v-2.055a3.75 3.75 0 0 0-1.366-2.965c-1.506-1.204-2.545-3.505-2.9-5.253a.584.584 0 0 1 .122-.494.629.629 0 0 1 .492-.233h8.527a.629.629 0 0 1 .607.466.589.589 0 0 1 .004.261c-.358 1.748-1.394 4.05-2.9 5.256a3.752 3.752 0 0 0-1.364 2.962Z" fill="url(#a)"/><path d="M9.875 10.444c4.026-.016 4.792-2.11 5.459-3.972a2.14 2.14 0 0 0-1.687-2.088c.177-.497.32-1.005.428-1.522A1.81 1.81 0 0 0 13.7 1.35a1.847 1.847 0 0 0-1.436-.682H3.737A1.847 1.847 0 0 0 1.94 2.064a1.81 1.81 0 0 0-.016.798c.108.517.251 1.025.428 1.522A2.139 2.139 0 0 0 .667 6.472c.667 2.195 1.432 3.956 5.46 3.972.022.13.036.26.04.39v2.055a1.15 1.15 0 0 1-1.222 1.222H3.723v1.222h8.555v-1.222h-1.217a1.152 1.152 0 0 1-1.227-1.222v-2.055c.004-.13.018-.26.04-.39Zm3.32-4.888a.917.917 0 0 1 .916.916C13.334 8 13.115 9.054 10.37 9.207c.108-.142.233-.27.372-.383a9.135 9.135 0 0 0 2.419-3.268h.035Zm-11.306.916a.917.917 0 0 1 .917-.916h.035a9.127 9.127 0 0 0 2.418 3.268c.14.113.264.241.373.383C2.886 9.054 2.3 7.869 1.889 6.472Zm6.722 4.362v2.055c-.006.426.096.847.298 1.222H7.092a2.49 2.49 0 0 0 .297-1.222v-2.055a3.75 3.75 0 0 0-1.366-2.965c-1.506-1.204-2.545-3.505-2.9-5.253a.584.584 0 0 1 .122-.494.629.629 0 0 1 .492-.233h8.527a.629.629 0 0 1 .607.466.589.589 0 0 1 .004.261c-.358 1.748-1.394 4.05-2.9 5.256a3.752 3.752 0 0 0-1.364 2.962Z" fill="url(#b)" fill-opacity=".12" style="mix-blend-mode:overlay"/><defs><linearGradient id="a" x1="7.986" y1=".667" x2="7.986" y2="15.333" gradientUnits="userSpaceOnUse"><stop stop-color="#78D747"/><stop offset=".585" stop-color="#58BC44"/><stop offset=".833" stop-color="#368B32"/></linearGradient><linearGradient id="b" x1="8" y1=".667" x2="8" y2="19.767" gradientUnits="userSpaceOnUse"><stop offset=".372" stop-color="#fff"/><stop offset=".372" stop-color="#fff" stop-opacity="0"/></linearGradient></defs></svg>