<svg width="108" height="36" fill="none" xmlns="http://www.w3.org/2000/svg"><path d="M23.786 11.422h-7.321V24.58h7.321V11.422Z" fill="#FF5F00"/><path d="M16.928 18a8.354 8.354 0 0 1 3.196-6.579 8.367 8.367 0 1 0 0 13.157A8.354 8.354 0 0 1 16.928 18Z" fill="#EB001B"/><path d="M33.663 18a8.368 8.368 0 0 1-13.538 6.578 8.368 8.368 0 0 0 0-13.156A8.367 8.367 0 0 1 33.663 18Z" fill="#F79E1B"/><path d="M48.287 20.985V17.47c0-1.345-.819-2.225-2.225-2.225-.703 0-1.467.232-1.993.996-.41-.641-.996-.996-1.876-.996-.587 0-1.174.178-1.638.82v-.704h-1.229v5.624h1.229v-3.106c0-.996.525-1.467 1.344-1.467.82 0 1.229.526 1.229 1.467v3.106h1.228v-3.106c0-.996.587-1.467 1.344-1.467.82 0 1.229.526 1.229 1.467v3.106h1.358ZM66.51 15.36h-1.993v-1.7h-1.228v1.7h-1.112v1.113h1.112v2.58c0 1.29.526 2.047 1.931 2.047.526 0 1.113-.178 1.522-.41l-.355-1.058c-.355.233-.764.294-1.057.294-.587 0-.82-.355-.82-.935v-2.518h1.993V15.36h.007Zm10.428-.123c-.702 0-1.173.355-1.467.82v-.704h-1.228v5.624h1.228V17.81c0-.935.41-1.467 1.174-1.467.232 0 .525.061.764.116l.355-1.174c-.245-.048-.594-.048-.826-.048Zm-15.758.587c-.587-.41-1.406-.587-2.286-.587-1.406 0-2.341.703-2.341 1.816 0 .935.703 1.467 1.931 1.638l.587.061c.642.116.997.294.997.587 0 .41-.471.703-1.29.703a3.239 3.239 0 0 1-1.877-.587l-.587.935c.642.47 1.522.703 2.402.703 1.638 0 2.58-.765 2.58-1.816 0-.996-.764-1.521-1.931-1.699l-.587-.061c-.526-.062-.935-.178-.935-.526 0-.41.41-.641 1.058-.641.703 0 1.406.293 1.76.47l.52-.996Zm32.684-.587c-.703 0-1.174.355-1.467.82v-.704h-1.229v5.624h1.229V17.81c0-.935.41-1.467 1.174-1.467.232 0 .525.061.764.116l.355-1.16c-.24-.062-.587-.062-.826-.062Zm-15.697 2.935c0 1.7 1.174 2.928 2.99 2.928.818 0 1.405-.178 1.992-.642l-.587-.996c-.47.355-.935.525-1.467.525-.997 0-1.7-.703-1.7-1.815 0-1.058.703-1.76 1.7-1.815.525 0 .996.177 1.467.525l.587-.996c-.587-.471-1.174-.642-1.993-.642-1.815-.007-2.989 1.229-2.989 2.928Zm11.363 0V15.36h-1.228v.703c-.41-.525-.997-.819-1.761-.819-1.583 0-2.812 1.229-2.812 2.928 0 1.7 1.229 2.928 2.812 2.928.819 0 1.406-.294 1.76-.82v.704h1.23v-2.812Zm-4.511 0c0-.996.642-1.815 1.7-1.815.996 0 1.699.764 1.699 1.815 0 .996-.703 1.815-1.7 1.815-1.05-.061-1.699-.825-1.699-1.815Zm-14.7-2.935c-1.638 0-2.812 1.174-2.812 2.928 0 1.76 1.174 2.928 2.873 2.928.819 0 1.638-.232 2.286-.765l-.587-.88c-.47.355-1.058.587-1.638.587-.764 0-1.522-.355-1.7-1.344h4.157v-.471c.055-1.809-1.003-2.983-2.58-2.983Zm0 1.058c.764 0 1.29.471 1.405 1.345h-2.927c.116-.758.641-1.345 1.521-1.345Zm30.52 1.877v-5.037h-1.229v2.928c-.41-.525-.996-.819-1.76-.819-1.584 0-2.812 1.229-2.812 2.928 0 1.7 1.228 2.928 2.812 2.928.819 0 1.405-.294 1.76-.82v.704h1.229v-2.812Zm-4.511 0c0-.996.641-1.815 1.7-1.815.995 0 1.698.764 1.698 1.815 0 .996-.703 1.815-1.699 1.815-1.058-.061-1.7-.825-1.7-1.815Zm-41.126 0V15.36h-1.229v.703c-.41-.525-.996-.819-1.76-.819-1.584 0-2.813 1.229-2.813 2.928 0 1.7 1.229 2.928 2.812 2.928.82 0 1.406-.294 1.761-.82v.704h1.229v-2.812Zm-4.566 0c0-.996.641-1.815 1.7-1.815.996 0 1.699.764 1.699 1.815 0 .996-.703 1.815-1.7 1.815-1.058-.061-1.7-.825-1.7-1.815Z" fill="#fff"/></svg>