<svg viewBox="0 0 29 29" fill="none" xmlns="http://www.w3.org/2000/svg"><path d="M13.24 18.88c0-.302-.04-.605-.118-.898-.29-1.09-1.306-2.004-2.415-2.175a5.548 5.548 0 0 0-.833-.05l-.708.005c-.381 0-4.508-.003-5.193.011a2.898 2.898 0 0 0-1.985.871 2.993 2.993 0 0 0-.891 1.988c-.016.35-.02 5.257.006 6.459.034 1.45 1.346 2.761 2.808 2.808.367.012 3.409.007 3.409.007s2.345.01 2.779.01h.006c.37 0 .643-.032.889-.105 1.36-.403 2.24-1.577 2.244-2.99.003-1.268.001-5.228.001-5.941Zm-2.385 5.91c0 .479-.278.754-.76.754H4.22c-.478 0-.763-.283-.763-.757-.002-1.994-.002-3.978 0-5.896 0-.467.278-.746.745-.746h5.895c.488 0 .756.266.757.748v5.897Z" fill="url(#a)"/><path d="M27.884 3.902c-.044-1.442-1.353-2.746-2.802-2.791-.368-.012-5.715-.017-6.167-.017-.218 0-.444.001-.662.046-1.494.311-2.5 1.543-2.503 3.066-.003 1.259-.002 5.94-.002 5.94 0 .305.03.55.091.772.409 1.458 1.556 2.33 3.067 2.332h5.854c.206 0 .397-.015.585-.046 1.403-.224 2.497-1.447 2.545-2.842.021-.641.022-5.536-.006-6.46ZM25.531 10.1c0 .493-.274.765-.77.766h-5.853c-.514 0-.776-.261-.776-.774V4.238c.001-.506.271-.773.784-.773h5.831c.505 0 .784.278.784.78V10.1Z" fill="url(#b)"/><path d="M27.89 18.712c-.03-1.647-1.375-2.944-3.062-2.95-.673-.003-6.002-.003-6.002-.003-.276 0-.508.026-.713.08-.71.186-1.307.571-1.725 1.112-.417.541-.638 1.216-.639 1.95-.002 1.604 0 5.877 0 5.877 0 .205.014.396.045.585.224 1.407 1.448 2.5 2.846 2.54.36.01 5.848.014 6.187.011a3.133 3.133 0 0 0 2.155-.854 2.95 2.95 0 0 0 .907-2.095c.038-2.062.038-4.166 0-6.253Zm-2.36 6.067c0 .479-.282.764-.756.765H18.88c-.466 0-.745-.279-.746-.746-.002-.703-.002-5.19 0-5.896 0-.496.26-.758.748-.758h5.895c.48 0 .754.278.755.76v5.875Z" fill="url(#c)"/><path d="M13.24 4.171a2.93 2.93 0 0 0-.075-.696c-.337-1.405-1.518-2.36-2.938-2.375a344.52 344.52 0 0 0-3.162-.017c-1.02 0-2.004.005-2.964.017-1.702.02-2.997 1.338-3.013 3.066-.007.68-.003 5.147-.002 5.918 0 .224.001.436.043.642.303 1.506 1.537 2.52 3.07 2.523l5.918.002h.006c.286 0 .519-.024.731-.075 1.422-.342 2.38-1.557 2.384-3.023.003-1.198.001-5.187.002-5.982Zm-2.385 5.933c0 .498-.266.76-.766.762H4.236c-.51 0-.78-.27-.78-.778V4.255c0-.517.276-.79.795-.79h5.81c.527 0 .794.264.794.785v5.854Z" fill="url(#d)"/><defs><linearGradient id="a" x1="14.501" y1="1.083" x2="14.501" y2="27.917" gradientUnits="userSpaceOnUse"><stop stop-color="#DADADA"/><stop offset="1" stop-color="#535353"/></linearGradient><linearGradient id="b" x1="14.501" y1="1.083" x2="14.501" y2="27.917" gradientUnits="userSpaceOnUse"><stop stop-color="#DADADA"/><stop offset="1" stop-color="#535353"/></linearGradient><linearGradient id="c" x1="14.501" y1="1.083" x2="14.501" y2="27.917" gradientUnits="userSpaceOnUse"><stop stop-color="#DADADA"/><stop offset="1" stop-color="#535353"/></linearGradient><linearGradient id="d" x1="14.501" y1="1.083" x2="14.501" y2="27.917" gradientUnits="userSpaceOnUse"><stop stop-color="#DADADA"/><stop offset="1" stop-color="#535353"/></linearGradient></defs></svg>