<svg width="24" height="24" viewBox="0 0 24 24" fill="none" xmlns="http://www.w3.org/2000/svg">
<path d="M23.9899 10.3735C23.9899 10.0403 23.9899 9.7166 23.9899 9.38341C23.9899 9.13589 23.9899 8.92646 23.9518 8.73606C23.7138 7.10818 22.8951 5.85156 21.5052 5.01382C21.1815 4.81391 21.0673 4.71871 21.0673 4.49023C21.0673 4.376 21.0197 4.27128 20.9626 4.12848C20.42 2.59579 19.4013 1.46294 17.9353 0.777513C17.1166 0.377681 16.1932 0.215845 15.0318 0.244404C14.908 0.244404 14.8033 0.292003 14.7366 0.368161C14.6319 0.482399 14.6414 0.615676 14.6414 0.691834V4.10944C14.6414 4.10944 14.6414 4.17608 14.6414 4.21416C14.6319 4.35696 14.6129 4.55687 14.7366 4.70919C14.8985 4.89958 15.1365 4.87102 15.2888 4.85199C15.3269 4.85199 15.3554 4.85199 15.384 4.85199C15.7838 4.85199 16.0409 4.91862 16.2598 5.08998C15.3269 5.69925 14.6605 6.54651 14.2702 7.63177C14.0798 8.16487 13.9751 8.7551 13.9751 9.43101C13.9655 10.7733 13.8608 11.8586 13.6609 12.8296C13.3658 14.2671 12.9279 15.2857 12.2425 16.1139C11.6713 16.7993 10.9382 17.2848 10.0529 17.5514C9.48172 17.7228 8.86293 17.7989 8.08231 17.8084C6.80665 17.8084 2.08484 17.8275 2.08484 17.8275L3.71272 19.6553C4.19823 20.1503 4.70278 20.6644 5.28349 21.1023C7.60632 22.873 10.1291 23.7583 12.8041 23.7583C13.7275 23.7583 14.67 23.6536 15.622 23.4441C17.5735 23.0062 19.2871 22.0162 20.696 20.493C22.6286 18.4082 23.6948 15.7998 23.9518 12.544C24.0089 11.8205 23.9994 11.0875 23.9994 10.383L23.9899 10.3735ZM18.0591 6.32755C18.5731 6.14668 18.6493 6.00388 18.535 5.45173C18.3542 4.56639 17.8972 3.88097 17.1832 3.4145C16.9643 3.2717 16.7644 3.1765 16.5549 3.10986C16.5549 2.89091 16.5549 2.66243 16.5549 2.44348V2.30068C17.3546 2.51964 18.021 2.96707 18.535 3.61441C19.0205 4.22368 19.2871 4.93766 19.3347 5.72781C19.3537 6.03244 19.5061 6.23236 19.8012 6.31803C20.5723 6.55603 21.172 7.0225 21.5909 7.68888C21.7623 7.96496 21.886 8.24103 21.9622 8.53615C21.2101 8.27911 20.4771 8.30767 19.7631 8.60278C19.4489 8.73606 19.1729 8.91694 18.9158 9.16445C18.2875 8.62182 17.6116 8.35527 16.8881 8.35527C16.6025 8.35527 16.2979 8.40287 16.0028 8.48855C16.0409 8.35527 16.098 8.21247 16.1646 8.05064C16.5359 7.21289 17.1547 6.65123 18.0686 6.32755H18.0591ZM17.2594 10.3639C17.6878 10.5258 17.9258 10.8114 17.9829 11.2398C18.0305 11.592 18.3066 11.6206 18.4303 11.6301C18.773 11.6301 19.1157 11.6301 19.4585 11.6301H19.4775C19.7345 11.6301 19.8964 11.4873 19.9249 11.2302C20.0011 10.6019 20.4485 10.2592 21.0483 10.2973C21.4005 10.3259 21.7051 10.4782 21.9431 10.7543C22.0383 10.859 22.0764 10.9732 22.0764 11.1255C22.0764 12.7915 21.867 14.248 21.4195 15.5618C20.6389 17.8465 19.3537 19.503 17.4974 20.6358C16.4883 21.2451 15.3554 21.6354 14.1274 21.7782C12.4995 21.9781 10.8621 21.7782 9.2818 21.1975C8.33934 20.8548 7.454 20.3597 6.6353 19.7409C6.78761 19.7409 6.93041 19.7409 7.08273 19.7409C7.73007 19.7409 8.39646 19.7505 9.05333 19.6933C11.4904 19.4839 13.3087 18.332 14.451 16.2662C14.9937 15.2952 15.3554 14.2004 15.6029 12.8201C15.7077 12.1917 15.7838 11.6301 15.8124 11.097C15.8219 10.8971 15.9076 10.7352 16.0789 10.5829C16.4216 10.2783 16.8215 10.2116 17.2594 10.3735V10.3639Z" fill="url(#paint0_linear_23123_25422)"/>
<path d="M5.07405 16.4471C5.83563 16.8184 6.65434 16.9992 7.51112 16.9992C7.85383 16.9992 8.20606 16.9707 8.5583 16.9136C10.3861 16.6089 11.7474 15.6094 12.5947 13.9339C13.1564 12.8296 13.3277 11.592 13.1373 10.1355C12.9564 8.78366 12.1473 7.7936 10.805 7.25097C10.2243 7.0225 9.62451 7.0225 9.02477 7.0225C8.97717 7.0225 8.81533 7.0225 8.70109 7.13674C8.58686 7.25097 8.58686 7.41281 8.58686 7.46993C8.58686 7.85072 8.58686 8.22199 8.58686 8.59327V9.25965C8.58686 9.38341 8.56782 9.47861 8.5107 9.54525C8.4155 9.67852 8.25366 9.73564 8.09183 9.68804C7.92047 9.63092 7.81575 9.49765 7.81575 9.31677C7.81575 8.91694 7.81575 8.52663 7.81575 8.12679C7.83479 7.0701 7.53968 6.11812 6.95897 5.28038C6.12123 4.0904 4.97885 3.34786 3.5604 3.0813C2.91306 2.95755 2.25619 2.98611 1.61837 3.00514C1.35181 3.00514 0 3.04322 0 3.04322L0.971019 3.81433C1.18045 3.98568 1.39941 4.16656 1.61837 4.3284C2.15147 4.74727 2.51323 5.11854 2.7893 5.52789C3.19865 6.1562 3.28433 6.76546 3.0273 7.41281C2.95114 7.60321 2.85594 7.77456 2.76074 7.94592C2.68458 8.08872 2.60842 8.23151 2.53227 8.38383C1.84684 9.88796 1.69452 11.3159 2.05628 12.7439C2.49419 14.4479 3.50329 15.695 5.06453 16.4471H5.07405ZM4.99789 5.8706C5.61668 6.48939 5.91179 7.2129 5.91179 8.06016V8.41239C5.91179 8.81222 5.90227 9.22157 5.94035 9.63092C6.04507 10.5924 6.89233 11.4492 7.88239 11.5825C8.88197 11.7253 9.86251 11.1922 10.2814 10.3068C10.4337 9.98315 10.5099 9.63092 10.5194 9.25013V9.22157C10.9668 9.50717 11.2048 9.89748 11.2619 10.402C11.3571 11.354 11.2905 12.1156 11.0334 12.782C10.4908 14.2195 9.05333 15.1429 7.46352 15.0667C6.80665 15.0382 6.24499 14.8954 5.75948 14.6383C4.84558 14.1528 4.23631 13.3912 3.95072 12.3821C3.6556 11.3254 3.76984 10.2592 4.31247 9.11685C4.36959 8.9931 4.4267 8.87886 4.49334 8.7551C4.6171 8.51711 4.75038 8.26007 4.84558 7.984C5.10261 7.26049 5.15021 6.54651 4.99789 5.85156V5.8706Z" fill="url(#paint1_linear_23123_25422)"/>
<defs>
<linearGradient id="paint0_linear_23123_25422" x1="12" y1="0.241211" x2="12" y2="23.7583" gradientUnits="userSpaceOnUse">
<stop stop-color="#DADADA"/>
<stop offset="1" stop-color="#535353"/>
</linearGradient>
<linearGradient id="paint1_linear_23123_25422" x1="12" y1="0.241211" x2="12" y2="23.7583" gradientUnits="userSpaceOnUse">
<stop stop-color="#DADADA"/>
<stop offset="1" stop-color="#535353"/>
</linearGradient>
</defs>
</svg>
