<svg width="29" height="29" viewBox="0 0 29 29" fill="none" xmlns="http://www.w3.org/2000/svg">
<g clip-path="url(#clip0_23011_31655)">
<path d="M10.9792 19.7489C8.2886 19.7489 5.59726 19.7518 2.90665 19.7438C2.71327 19.7438 2.68335 19.8007 2.68408 19.9759C2.69065 21.6894 2.68773 23.4029 2.68846 25.1164C2.68846 25.8574 3.13945 26.31 3.87577 26.3115C4.15527 26.3115 4.43476 26.3057 4.71426 26.3144C4.83905 26.3181 4.88283 26.2867 4.87845 26.1545C4.86897 25.8326 4.87335 25.5106 4.87626 25.1887C4.88721 23.6949 5.92346 22.391 7.37349 22.0355C7.64715 21.9683 7.92154 21.9347 8.20249 21.9355C9.62989 21.9369 11.0573 21.934 12.4847 21.9369C14.358 21.9398 15.8044 23.3883 15.8102 25.2631C15.8109 25.561 15.8146 25.8589 15.808 26.156C15.8058 26.2677 15.8255 26.3188 15.954 26.3144C16.2758 26.3049 16.5976 26.3144 16.9194 26.31C17.5149 26.2998 17.9892 25.8238 17.9944 25.2237C18.0002 24.5009 17.9944 23.7774 17.9973 23.0547C17.9995 22.4772 18.4023 22.0099 18.9496 21.9428C19.5181 21.8727 20.0275 22.2362 20.1603 22.8123C20.1807 22.8999 20.1822 22.9933 20.1822 23.0839C20.1836 23.7949 20.1858 24.506 20.1822 25.2164C20.1734 26.8262 19.0313 28.1739 17.4485 28.4543C17.2675 28.4864 17.088 28.4995 16.9056 28.4995C12.5321 28.4995 8.15871 28.501 3.78528 28.4988C2.18128 28.4981 0.830498 27.3511 0.546623 25.7683C0.514514 25.5873 0.500649 25.4077 0.500649 25.2252C0.500649 20.2731 0.499189 15.3203 0.500649 10.3682C0.500649 8.97524 1.32308 7.77719 2.61621 7.28074C2.72057 7.24059 2.74976 7.17707 2.76362 7.07997C2.93511 5.88923 3.35399 4.79266 4.04726 3.80853C5.22509 2.1374 6.81012 1.06638 8.81549 0.656811C12.411 -0.0776398 15.9824 1.82273 17.4047 5.20734C17.6528 5.79724 17.8258 6.40904 17.9112 7.04347C17.9294 7.17853 17.9819 7.24643 18.1177 7.299C19.3196 7.75821 20.1719 8.96356 20.1778 10.2594C20.1902 13.0607 20.1844 15.862 20.1814 18.6633C20.1807 19.2853 19.6932 19.7489 19.0525 19.7489C16.3619 19.7504 13.6698 19.7482 10.9792 19.7489ZM10.3414 17.5609C12.8255 17.5609 15.3103 17.5587 17.7944 17.5653C17.9659 17.5653 18.0002 17.5156 18.0002 17.3543C17.9951 15.0516 17.9973 12.7482 17.9965 10.4456C17.9965 9.69582 17.5463 9.24829 16.7939 9.24829C12.4993 9.24829 8.20541 9.25632 3.9108 9.24025C3.20658 9.23733 2.67313 9.74254 2.68043 10.4806C2.70305 12.765 2.69065 15.0502 2.68481 17.3345C2.68481 17.5098 2.714 17.5674 2.90738 17.5667C5.38563 17.5587 7.86316 17.5609 10.3414 17.5609ZM10.3363 7.06026C12.0366 7.06026 13.737 7.06026 15.4366 7.06026C15.4789 7.06026 15.5219 7.05734 15.5643 7.06026C15.6635 7.06756 15.7037 7.04931 15.673 6.92958C15.584 6.58207 15.4782 6.24185 15.3278 5.91624C14.2062 3.48073 11.6426 2.19799 9.03441 2.85651C6.93053 3.38801 5.60748 4.77149 5.02586 6.86606C4.9777 7.03836 5.01638 7.06391 5.18057 7.06318C6.89915 7.05807 8.61772 7.06026 10.3363 7.06026ZM10.3421 26.3122C11.3747 26.3122 12.4066 26.3086 13.4392 26.3159C13.5947 26.3166 13.6311 26.2699 13.626 26.1224C13.6144 25.8253 13.6253 25.5274 13.6217 25.2295C13.6144 24.6002 13.1415 24.1271 12.5095 24.1257C11.0639 24.1227 9.61895 24.1227 8.1733 24.1257C7.54133 24.1271 7.06845 24.6009 7.06188 25.2303C7.05896 25.5281 7.06918 25.826 7.0575 26.1231C7.05167 26.2713 7.08888 26.3173 7.24432 26.3159C8.27693 26.3086 9.30953 26.3122 10.3421 26.3122Z" fill="url(#paint0_linear_23011_31655)"/>
<path d="M28.4999 12.3146C28.4196 13.7097 27.7811 14.7391 26.488 15.3254C26.3391 15.3926 26.3019 15.467 26.3026 15.6203C26.3085 17.4192 26.3194 19.2174 26.3026 21.0163C26.2888 22.4239 25.6218 23.4401 24.3593 24.0549C23.9462 24.2556 23.4989 24.3461 23.0362 24.3432C22.4276 24.3396 21.9387 23.8628 21.9336 23.2664C21.9277 22.6611 22.3941 22.1771 23.0027 22.1559C23.674 22.1333 24.1185 21.6748 24.1192 20.9988C24.1207 19.194 24.1177 17.3893 24.1236 15.5846C24.1236 15.4466 24.0805 15.3845 23.9557 15.3327C22.713 14.8165 21.9292 13.6251 21.9343 12.2722C21.9387 10.9786 22.7567 9.77467 23.9732 9.27384C25.8254 8.51164 27.9095 9.57828 28.3963 11.5349C28.4598 11.7897 28.5065 12.0445 28.5014 12.3139L28.4999 12.3146ZM26.3055 12.3102C26.3055 11.7123 25.8173 11.2209 25.2211 11.218C24.614 11.2151 24.1207 11.7057 24.1207 12.3117C24.1207 12.9096 24.6089 13.4009 25.2043 13.4038C25.8108 13.4068 26.3055 12.9147 26.3055 12.3102Z" fill="url(#paint1_linear_23011_31655)"/>
<path d="M7.06115 13.4031C7.06115 13.7616 7.06334 14.1193 7.06115 14.4778C7.05605 15.1108 6.5766 15.5948 5.96068 15.5919C5.35571 15.5897 4.87918 15.1042 4.87626 14.4807C4.87262 13.7645 4.87262 13.0483 4.87626 12.3321C4.87918 11.6991 5.35936 11.2158 5.97601 11.2187C6.5817 11.2209 7.05532 11.7042 7.06115 12.3299C7.06407 12.6884 7.06115 13.0461 7.06115 13.4046V13.4031Z" fill="url(#paint2_linear_23011_31655)"/>
<path d="M11.4353 13.4053C11.4353 13.7638 11.4375 14.1215 11.4353 14.48C11.4295 15.1122 10.9486 15.5955 10.3326 15.5919C9.72768 15.5882 9.25334 15.1035 9.25042 14.4785C9.24677 13.7623 9.24677 13.0461 9.25042 12.3299C9.25334 11.705 9.72841 11.2209 10.3348 11.2187C10.9522 11.2158 11.4302 11.6977 11.436 12.3321C11.439 12.6906 11.436 13.0483 11.436 13.4068L11.4353 13.4053Z" fill="url(#paint3_linear_23011_31655)"/>
<path d="M13.6224 13.4009C13.6224 13.0425 13.6202 12.6847 13.6224 12.3263C13.6275 11.7028 14.1033 11.2195 14.7097 11.218C15.3191 11.2158 15.8029 11.6948 15.8073 12.3153C15.8124 13.0439 15.8124 13.7725 15.8073 14.5004C15.8029 15.1166 15.3118 15.5962 14.7024 15.5911C14.1055 15.5868 13.629 15.1042 13.6231 14.4931C13.6195 14.1288 13.6224 13.7652 13.6224 13.4009Z" fill="url(#paint4_linear_23011_31655)"/>
</g>
<defs>
<linearGradient id="paint0_linear_23011_31655" x1="14.5009" y1="0.5" x2="14.5009" y2="28.5" gradientUnits="userSpaceOnUse">
<stop stop-color="#DADADA"/>
<stop offset="1" stop-color="#535353"/>
</linearGradient>
<linearGradient id="paint1_linear_23011_31655" x1="14.5009" y1="0.5" x2="14.5009" y2="28.5" gradientUnits="userSpaceOnUse">
<stop stop-color="#DADADA"/>
<stop offset="1" stop-color="#535353"/>
</linearGradient>
<linearGradient id="paint2_linear_23011_31655" x1="14.5009" y1="0.5" x2="14.5009" y2="28.5" gradientUnits="userSpaceOnUse">
<stop stop-color="#DADADA"/>
<stop offset="1" stop-color="#535353"/>
</linearGradient>
<linearGradient id="paint3_linear_23011_31655" x1="14.5009" y1="0.5" x2="14.5009" y2="28.5" gradientUnits="userSpaceOnUse">
<stop stop-color="#DADADA"/>
<stop offset="1" stop-color="#535353"/>
</linearGradient>
<linearGradient id="paint4_linear_23011_31655" x1="14.5009" y1="0.5" x2="14.5009" y2="28.5" gradientUnits="userSpaceOnUse">
<stop stop-color="#DADADA"/>
<stop offset="1" stop-color="#535353"/>
</linearGradient>
<clipPath id="clip0_23011_31655">
<rect width="28" height="28" fill="white" transform="translate(0.5 0.5)"/>
</clipPath>
</defs>
</svg>
