<svg width="33" height="33" viewBox="0 0 33 33" fill="none" xmlns="http://www.w3.org/2000/svg">
<path fill-rule="evenodd" clip-rule="evenodd" d="M21.5061 10.8299L18.158 10.1048L16.4338 7.14461L14.7096 10.1048L11.3615 10.8299L13.644 13.3844L13.2989 16.7927L16.4338 15.4113L19.5686 16.7927L19.2235 13.3844L21.5061 10.8299ZM16.4225 12.4624L16.4338 12.443L16.4451 12.4624L16.467 12.4671L16.4521 12.4839L16.4543 12.5062L16.4338 12.4972L16.4132 12.5062L16.4155 12.4839L16.4005 12.4671L16.4225 12.4624Z" fill="url(#paint0_linear_23011_31515)"/>
<path fill-rule="evenodd" clip-rule="evenodd" d="M28.5021 12.4988C28.5021 14.7586 27.8775 16.8725 26.7914 18.6773L31.7916 27.3379L25.496 27.1003L22.554 32.6713L17.7959 24.4298C17.3709 24.4754 16.9392 24.4988 16.5021 24.4988C16.0541 24.4988 15.6119 24.4742 15.1767 24.4264L10.3997 32.7003L7.49944 27.0571L1.16211 27.367L6.19565 18.6487C5.12018 16.8502 4.50211 14.7467 4.50211 12.4988C4.50211 5.87136 9.87469 0.498779 16.5021 0.498779C23.1295 0.498779 28.5021 5.87136 28.5021 12.4988ZM25.8354 12.4988C25.8354 17.6534 21.6568 21.8321 16.5021 21.8321C11.3474 21.8321 7.16877 17.6534 7.16877 12.4988C7.16877 7.34412 11.3474 3.16545 16.5021 3.16545C21.6568 3.16545 25.8354 7.34412 25.8354 12.4988ZM12.4588 23.8006C10.7454 23.1875 9.21215 22.1959 7.9597 20.9266L5.917 24.4646L9.08567 24.3097L10.5358 27.1313L12.4588 23.8006ZM20.5175 23.8105C22.2324 23.2017 23.7679 22.214 25.0233 20.948L27.0688 24.4911L23.921 24.3722L22.45 27.1577L20.5175 23.8105Z" fill="url(#paint1_linear_23011_31515)"/>
<defs>
<linearGradient id="paint0_linear_23011_31515" x1="16.4769" y1="0.498779" x2="16.4769" y2="32.7003" gradientUnits="userSpaceOnUse">
<stop stop-color="#DADADA"/>
<stop offset="1" stop-color="#535353"/>
</linearGradient>
<linearGradient id="paint1_linear_23011_31515" x1="16.4769" y1="0.498779" x2="16.4769" y2="32.7003" gradientUnits="userSpaceOnUse">
<stop stop-color="#DADADA"/>
<stop offset="1" stop-color="#535353"/>
</linearGradient>
</defs>
</svg>
