<svg width="29" height="29" viewBox="0 0 29 29" fill="none" xmlns="http://www.w3.org/2000/svg">
<g clip-path="url(#clip0_23011_31543)">
<path d="M27.8987 1.1771C27.4829 0.740588 26.897 0.500244 26.2494 0.500244C26.2163 0.500244 26.1831 0.500244 26.15 0.502193C25.2211 0.53662 24.2584 0.640553 23.2899 0.809443C21.6095 1.10305 19.9186 1.61362 18.2654 2.3275C15.9789 3.31421 13.8366 4.68417 11.8963 6.40035C11.8379 6.45232 11.8151 6.45232 11.8054 6.45232C11.7872 6.45232 11.7606 6.44517 11.7268 6.43153C10.8668 6.08141 10.1392 5.85341 9.43574 5.71375C9.09147 5.64489 8.77707 5.61176 8.47567 5.61176C7.94691 5.61176 7.46882 5.7144 7.01542 5.92616C6.39572 6.21522 5.77018 6.60302 5.10177 7.11164C3.59345 8.25944 2.22674 9.62095 1.02048 10.8214C0.582662 11.2572 0.407926 11.8185 0.542389 12.3602C0.6775 12.9059 1.11596 13.3424 1.71617 13.5275C2.45539 13.7555 3.2037 13.9971 3.92798 14.2303C4.42101 14.3895 4.93028 14.5538 5.4337 14.713C5.16283 15.2248 4.93483 15.6607 4.71137 16.1076C4.206 17.1177 4.35735 18.0375 5.16153 18.8417C6.15148 19.8323 7.14144 20.8229 8.13139 21.8129C8.33666 22.0181 8.54192 22.224 8.74719 22.43C9.22788 22.9119 9.72545 23.4102 10.2172 23.898C10.668 24.3462 11.2104 24.5826 11.7846 24.5826C12.1399 24.5826 12.4978 24.493 12.8486 24.3157C13.4274 24.0234 13.8717 23.7928 14.2868 23.5706C14.444 24.0708 14.6083 24.5768 14.7668 25.0666C15.0033 25.7961 15.2475 26.5502 15.4729 27.2959C15.6931 28.0248 16.2979 28.4957 17.0137 28.4957C17.4626 28.4957 17.8822 28.3119 18.1953 27.9773C18.498 27.6545 18.8137 27.3317 19.119 27.0199C19.5217 26.6087 19.9374 26.1839 20.3324 25.7493C21.1158 24.8854 22.0128 23.8434 22.728 22.6657C23.3555 21.6323 23.5329 20.5878 23.2704 19.4737C23.0996 18.7495 22.8651 18.0128 22.5728 17.2847C22.5371 17.195 22.5409 17.1723 22.6066 17.0982C24.5053 14.9475 25.9792 12.5499 26.9867 9.97302C27.8636 7.72938 28.3664 5.43378 28.4813 3.14922L28.4859 3.05763C28.4891 2.99137 28.493 2.92576 28.4963 2.85951C28.5274 2.21058 28.3163 1.61232 27.9 1.1758L27.8987 1.1771ZM26.4456 2.77051C26.4417 2.86925 26.4352 2.97123 26.4287 3.06997C26.4254 3.11609 26.4228 3.16221 26.4196 3.20898C26.291 5.39026 25.7739 7.57089 24.884 9.69045C24.2383 11.2287 23.4101 12.6967 22.4227 14.0543C21.4678 15.3678 20.3343 16.6175 19.054 17.7692C17.0429 19.579 14.7116 21.1204 11.9262 22.4813C11.8807 22.5034 11.8411 22.515 11.8086 22.515C11.7762 22.515 11.7339 22.506 11.6638 22.4364C10.0282 20.7976 8.31197 19.082 6.56461 17.3366C6.47497 17.247 6.46523 17.1879 6.52044 17.0742C8.2652 13.4976 10.3374 10.6265 12.8558 8.29711C15.0487 6.26784 17.5373 4.73743 20.2512 3.74813C21.8134 3.17845 23.4016 2.80754 24.973 2.64515C25.3042 2.61072 25.644 2.59188 25.972 2.57304C26.0591 2.56785 26.1467 2.5633 26.2338 2.5581C26.2461 2.55745 26.2585 2.5568 26.2702 2.5568C26.3091 2.5568 26.3786 2.56135 26.4085 2.59253C26.4358 2.62046 26.4488 2.68347 26.4456 2.77051ZM8.47112 7.66443C8.71146 7.66443 8.95895 7.71249 9.19215 7.76251C9.52474 7.83332 9.85667 7.94179 10.1808 8.05157C8.83878 9.47415 7.59809 11.0987 6.49316 12.8831C6.48991 12.8883 6.48666 12.8935 6.48407 12.8974C5.31418 12.5142 4.16053 12.1446 2.98545 11.7691C4.25147 10.533 5.56232 9.25979 7.04855 8.2471C7.39412 8.0113 7.69228 7.85215 7.98784 7.74497C8.13594 7.69106 8.29379 7.66443 8.47112 7.66443ZM20.9592 21.6212C20.4915 22.417 19.8887 23.1341 19.36 23.7434C18.7663 24.4281 18.1076 25.1328 17.232 26.0182C17.1274 25.6941 17.0234 25.3706 16.9195 25.0464C16.6532 24.2182 16.3784 23.3614 16.1017 22.5202C16.1069 22.517 16.1121 22.5137 16.1166 22.5111L16.1342 22.5008C17.7685 21.4848 19.2684 20.3585 20.5916 19.1528C20.7182 19.0372 20.8358 18.9281 20.9469 18.8222C21.1372 19.3886 21.3094 19.9343 21.3366 20.6098V20.6137C21.3555 20.9177 21.1522 21.2932 20.9592 21.6212Z" fill="url(#paint0_linear_23011_31543)"/>
<path d="M8.27495 23.8259C8.08657 23.8259 7.89495 23.8772 7.71956 23.974C6.59254 24.5976 5.30768 25.0016 3.79482 25.2069C3.90005 24.4235 4.07284 23.6564 4.31058 22.9249C4.51585 22.2929 4.80881 21.6959 5.06864 21.1951C5.31808 20.7138 5.13944 20.1233 4.662 19.8505C4.50675 19.7621 4.33202 19.7154 4.15598 19.7154C3.81561 19.7154 3.49601 19.8875 3.29984 20.1759C3.22579 20.285 3.16213 20.4013 3.10497 20.5111C2.5262 21.6147 2.12151 22.8158 1.86947 24.1812C1.74086 24.8763 1.66616 25.5687 1.64667 26.2404C1.63757 26.5619 1.73696 26.8399 1.93443 27.0432C2.13125 27.2459 2.41707 27.3576 2.73926 27.3576C2.75095 27.3576 2.76264 27.3576 2.77433 27.3576C2.85033 27.3557 2.92439 27.3511 3.00948 27.3466C3.05105 27.344 3.09522 27.3414 3.14329 27.3388C5.01472 27.2095 6.72831 26.7672 8.24052 26.0241C8.4315 25.9299 8.577 25.8539 8.71146 25.7772C9.25256 25.468 9.43964 24.8665 9.15577 24.3475C8.97714 24.0208 8.64781 23.8259 8.27495 23.8259Z" fill="url(#paint1_linear_23011_31543)"/>
<path d="M19.5639 5.793H19.5542C17.4859 5.793 15.8646 7.39615 15.8627 9.44297C15.8614 10.4277 16.2427 11.354 16.9351 12.0504C17.6276 12.7467 18.5526 13.1332 19.5386 13.1384H19.5594C20.5422 13.1384 21.4679 12.7532 22.1655 12.0543C22.8631 11.3553 23.247 10.4297 23.2457 9.44751C23.2431 7.4033 21.6263 5.79754 19.5639 5.793ZM21.1859 9.46375C21.1801 10.3621 20.4584 11.0656 19.5425 11.0656H19.5321C18.6273 11.0604 17.9199 10.3485 17.9225 9.44491C17.9251 8.54525 18.6532 7.81383 19.5464 7.81383H19.5516C19.9914 7.81513 20.4032 7.98791 20.7117 8.29906C21.0203 8.61086 21.1885 9.02464 21.1859 9.46375Z" fill="url(#paint2_linear_23011_31543)"/>
</g>
<defs>
<linearGradient id="paint0_linear_23011_31543" x1="14.4987" y1="0.500244" x2="14.4987" y2="28.4957" gradientUnits="userSpaceOnUse">
<stop stop-color="#DADADA"/>
<stop offset="1" stop-color="#535353"/>
</linearGradient>
<linearGradient id="paint1_linear_23011_31543" x1="14.4987" y1="0.500244" x2="14.4987" y2="28.4957" gradientUnits="userSpaceOnUse">
<stop stop-color="#DADADA"/>
<stop offset="1" stop-color="#535353"/>
</linearGradient>
<linearGradient id="paint2_linear_23011_31543" x1="14.4987" y1="0.500244" x2="14.4987" y2="28.4957" gradientUnits="userSpaceOnUse">
<stop stop-color="#DADADA"/>
<stop offset="1" stop-color="#535353"/>
</linearGradient>
<clipPath id="clip0_23011_31543">
<rect width="28" height="28" fill="white" transform="translate(0.5 0.5)"/>
</clipPath>
</defs>
</svg>
