<svg width="29" height="29" viewBox="0 0 29 29" fill="none" xmlns="http://www.w3.org/2000/svg">
<g clip-path="url(#clip0_23011_31571)">
<path d="M22.492 14.122C21.7629 12.4479 20.7774 10.5444 19.5624 8.43828C18.5633 6.68322 14.5807 0.5 14.5807 0.5C14.5807 0.5 11.5971 4.88766 10.8005 6.1567C10.6655 6.34571 10.625 6.56172 10.625 6.66972C10.5845 6.79122 10.5845 6.92623 10.5845 7.02073C10.5845 7.20974 10.5845 7.46625 10.6115 7.69576C10.6385 7.95227 10.6655 8.23578 10.706 8.51929L9.86901 7.66876L9.22099 8.7758C8.41096 10.1663 7.27692 12.2589 6.41289 14.2975C5.53536 16.3361 5.08984 17.9696 5.08984 19.1577C5.08984 21.6418 6.07538 23.9908 7.84394 25.7594C9.62601 27.528 11.9886 28.5 14.4997 28.5C19.6839 28.5 23.9095 24.2744 23.9095 19.0902C23.9095 17.8616 23.4505 16.2281 22.492 14.122ZM14.4997 26.5694C13.1766 26.5694 12.1101 25.4894 12.1101 24.1663C12.1101 24.0313 12.1506 23.5993 12.5556 22.7083C12.8526 22.0198 13.2981 21.2502 13.6762 20.5887C13.9732 20.0757 14.2702 19.5897 14.5267 19.1847C14.7832 19.5897 15.0802 20.0757 15.3772 20.5887C15.7552 21.2367 16.1467 21.9793 16.4978 22.7083C16.6193 22.9783 16.9568 23.7883 16.9568 24.1528C16.9028 25.4759 15.7957 26.5694 14.4997 26.5694ZM18.6848 25.2734C18.7793 24.9089 18.8333 24.5444 18.8333 24.1663C18.8333 23.6263 18.6443 22.9108 18.2258 21.9253C17.8748 21.1287 17.4428 20.3052 17.0108 19.6167C16.5923 18.8607 14.8507 16.2281 14.7832 16.1066L14.4997 15.688L14.2162 16.1066C14.1487 16.2281 12.4071 18.8607 11.9751 19.5897L11.8401 19.8462C11.4621 20.5212 11.0706 21.2232 10.7735 21.8983C10.3685 22.7623 10.166 23.5183 10.166 24.1393C10.166 24.5039 10.22 24.8819 10.3145 25.2329C8.28946 23.8558 7.06091 21.5743 7.06091 19.0902C7.06091 18.1991 7.45243 16.8221 8.23546 15.013C8.81598 13.6495 9.572 12.1914 10.3145 10.7874L13.7707 14.2435L13.5681 13.177C13.5681 13.177 12.8796 9.54532 12.7851 9.0053C12.7311 8.61379 12.6771 8.22228 12.6366 7.87126L12.5826 7.47975C12.5556 7.34474 12.5556 7.14224 12.5556 7.02073C13.3116 5.83269 13.9867 4.77965 14.4727 4.02363C14.4862 4.01013 14.4997 3.99662 14.4997 3.98312C14.6482 4.19913 14.8237 4.45564 14.9992 4.73915C15.7822 5.9542 19.9404 13.1365 20.7099 14.878C21.5199 16.7681 21.9384 18.1856 21.9384 19.0902C21.9384 21.6013 20.7099 23.8963 18.6848 25.2734Z" fill="url(#paint0_linear_23011_31571)"/>
</g>
<defs>
<linearGradient id="paint0_linear_23011_31571" x1="14.4997" y1="0.5" x2="14.4997" y2="28.5" gradientUnits="userSpaceOnUse">
<stop stop-color="#DADADA"/>
<stop offset="1" stop-color="#535353"/>
</linearGradient>
<clipPath id="clip0_23011_31571">
<rect width="28" height="28" fill="white" transform="translate(0.5 0.5)"/>
</clipPath>
</defs>
</svg>
