<svg width="28" height="29" viewBox="0 0 28 29" fill="none" xmlns="http://www.w3.org/2000/svg">
<path d="M27.8243 10.0238L22.6408 2.28328C22.4788 2.04031 22.2127 1.88989 21.9235 1.88989H6.07223C5.79455 1.88989 5.52843 2.02874 5.35488 2.27171L0.171409 10.0238C-0.0715662 10.3825 -0.0484257 10.8915 0.22926 11.2271L13.3383 26.8006C13.5119 26.9973 13.7433 27.113 13.9979 27.113C14.2524 27.113 14.4838 26.9973 14.6574 26.8006L27.7664 11.2271C28.0441 10.8915 28.0788 10.3825 27.8243 10.0238ZM22.0276 4.6089L25.3714 9.61882H20.4193L22.0276 4.6089ZM19.7945 11.551H25.1053L16.335 21.9643L19.7945 11.551ZM17.4458 9.64196H10.5499L13.9979 4.48163L17.4458 9.64196ZM10.0871 11.551H17.9202L14.0094 23.3411L10.0987 11.551H10.0871ZM18.9036 8.54278L15.7218 3.77584H20.4309L18.8921 8.53121L18.9036 8.54278ZM8.20116 11.5279L11.6607 21.9527L2.89042 11.5395H8.18959L8.20116 11.5279ZM7.5648 3.77584H12.2739L9.10364 8.53121L7.5648 3.77584ZM5.94496 4.63204L7.55323 9.64196H2.61273L5.94496 4.63204Z" fill="url(#paint0_linear_23011_31599)"/>
<defs>
<linearGradient id="paint0_linear_23011_31599" x1="14.0002" y1="1.88989" x2="14.0002" y2="27.113" gradientUnits="userSpaceOnUse">
<stop stop-color="#DADADA"/>
<stop offset="1" stop-color="#535353"/>
</linearGradient>
</defs>
</svg>
