<svg width="24" height="24" viewBox="0 0 24 24" fill="none" xmlns="http://www.w3.org/2000/svg">
<path d="M20.4806 3.52131C18.2183 1.24918 15.2085 0 12.002 0C8.7954 0 5.78556 1.24918 3.51343 3.51148C1.25113 5.78361 0.00195312 8.79344 0.00195312 12C0.00195312 15.2066 1.25113 18.2164 3.51343 20.4885C5.77572 22.7607 8.7954 24 12.002 24C15.2085 24 18.2183 22.7508 20.4905 20.4885C22.7528 18.2262 24.002 15.2066 24.002 12C24.002 8.79344 22.7528 5.78361 20.4806 3.52131ZM16.6544 17.9705L18.4642 19.7803C16.9003 21.0787 14.9528 21.8852 12.9364 22.0721V19.5148C14.2938 19.3475 15.5724 18.8164 16.6544 17.9705ZM6.03146 7.34754C5.18556 8.42951 4.65441 9.7082 4.4872 11.0656H1.92982C2.11671 9.04918 2.92326 7.10164 4.22163 5.5377L6.03146 7.34754ZM5.53966 4.20984C7.10359 2.91148 9.05113 2.10492 11.0675 1.91803V4.47541C9.71015 4.64262 8.43146 5.17377 7.34949 6.01967L5.53966 4.20984ZM4.22163 18.4623C2.92326 16.8984 2.11671 14.9508 1.92982 12.9344H4.4872C4.65441 14.2918 5.18556 15.5705 6.03146 16.6525L4.22163 18.4623ZM5.53966 19.7803L7.34949 17.9705C8.43146 18.8164 9.71015 19.3475 11.0675 19.5148V22.0721C9.05113 21.8852 7.10359 21.0787 5.53966 19.7803ZM17.7069 11.9902C17.7069 13.5148 17.1069 14.9508 16.0347 16.023C14.9626 17.1049 13.5265 17.6951 12.002 17.6951C10.4774 17.6951 9.0413 17.1049 7.96917 16.023C6.8872 14.941 6.29704 13.5148 6.29704 11.9902C6.29704 10.4656 6.8872 9.02951 7.96917 7.95738C9.05113 6.88525 10.4774 6.28525 12.002 6.28525C13.5265 6.28525 14.9528 6.87541 16.0347 7.95738C17.1167 9.03934 17.7069 10.4656 17.7069 11.9902ZM12.9364 1.92787C14.9528 2.11475 16.9102 2.92131 18.4642 4.21967L16.6544 6.02951C15.5724 5.18361 14.2938 4.65246 12.9364 4.48525V1.92787ZM22.0741 12.9246C21.8872 14.941 21.0806 16.8984 19.7823 18.4525L17.9724 16.6426C18.8183 15.5607 19.3495 14.282 19.5167 12.9246H22.0741ZM22.0741 11.0557H19.5167C19.3495 9.69836 18.8183 8.41967 17.9724 7.33771L19.7823 5.52787C21.0806 7.0918 21.8872 9.03934 22.0741 11.0557Z" fill="url(#paint0_linear_23123_25627)"/>
<path d="M15.1101 9.55082C15.0216 9.23607 14.7757 8.98033 14.4511 8.8918C14.1364 8.80328 13.7921 8.8918 13.5462 9.12787L12.897 9.77705C12.3167 9.53115 11.6577 9.53115 11.0872 9.77705L10.438 9.12787C10.202 8.90164 9.85769 8.80328 9.54294 8.8918C9.22818 8.98033 8.97244 9.22623 8.88392 9.55082C8.7954 9.86557 8.88392 10.2098 9.11999 10.4557L9.76917 11.1049C9.52327 11.6852 9.52327 12.3443 9.76917 12.9148L9.11999 13.5639C8.94294 13.741 8.84458 13.977 8.84458 14.223C8.84458 14.4689 8.94294 14.7148 9.11999 14.8918C9.29704 15.0689 9.5331 15.1672 9.779 15.1672C10.0249 15.1672 10.2708 15.0689 10.438 14.8918L11.0872 14.2426C11.6577 14.4885 12.3265 14.4885 12.897 14.2426L13.5462 14.8918C13.7823 15.118 14.1265 15.2164 14.4413 15.1279C14.7561 15.0393 15.0118 14.7934 15.1003 14.4689C15.1888 14.1443 15.1003 13.8098 14.8642 13.5639L14.2151 12.9148C14.461 12.3344 14.461 11.6754 14.2151 11.1049L14.8642 10.4557C15.1003 10.2197 15.1888 9.87541 15.1003 9.56066L15.1101 9.55082ZM12.5429 12C12.5429 12.1475 12.4839 12.2852 12.3856 12.3836C12.179 12.5902 11.8249 12.5902 11.6183 12.3836C11.52 12.2852 11.461 12.1475 11.461 12C11.461 11.8525 11.52 11.7148 11.6183 11.6164C11.7167 11.518 11.8544 11.459 12.002 11.459C12.1495 11.459 12.2872 11.518 12.3856 11.6164C12.4839 11.7148 12.5429 11.8525 12.5429 12Z" fill="url(#paint1_linear_23123_25627)"/>
<defs>
<linearGradient id="paint0_linear_23123_25627" x1="12.002" y1="0" x2="12.002" y2="24" gradientUnits="userSpaceOnUse">
<stop stop-color="#DADADA"/>
<stop offset="1" stop-color="#535353"/>
</linearGradient>
<linearGradient id="paint1_linear_23123_25627" x1="12.002" y1="0" x2="12.002" y2="24" gradientUnits="userSpaceOnUse">
<stop stop-color="#DADADA"/>
<stop offset="1" stop-color="#535353"/>
</linearGradient>
</defs>
</svg>
