<svg width="24" height="24" viewBox="0 0 24 24" fill="none" xmlns="http://www.w3.org/2000/svg">
<path d="M12.0099 0C5.39158 0 0 5.38715 0 12C0 15.1928 1.2366 18.1977 3.49216 20.4613L3.53173 20.5008C4.2638 21.2323 5.09479 21.8649 5.99504 22.3888C6.22257 22.5173 6.47979 22.547 6.72711 22.4876C6.97443 22.4185 7.18218 22.2603 7.31078 22.0329C7.43939 21.8056 7.47896 21.5486 7.40971 21.3015C7.34046 21.0544 7.18218 20.8468 6.96453 20.7183C6.47979 20.4415 6.02472 20.1252 5.58944 19.7694L11.0305 14.3328V22.0231H10.9909C10.7337 21.9934 10.4864 22.0725 10.2786 22.2306C10.0709 22.3888 9.95216 22.626 9.93238 22.883C9.88291 23.4168 10.2687 23.8913 10.8029 23.9407C11.1987 23.9802 11.6043 24 12 24C15.1953 24 18.2028 22.7644 20.4583 20.5107L20.5078 20.4613C22.7633 18.1977 23.9999 15.1928 23.9999 12C24.0197 5.38715 18.6282 0 12.0099 0ZM1.97856 11.0313C2.16652 9.02471 2.94806 7.14662 4.23412 5.59473L9.67516 11.0313H1.97856ZM9.67516 12.9588L4.23412 18.3954C2.94806 16.8336 2.16652 14.9654 1.97856 12.9588H9.67516ZM18.4204 19.7595C16.8573 21.0445 14.9876 21.8254 12.9794 22.0132V14.3229L18.4204 19.7595ZM14.3446 12.9588H22.0412C21.8532 14.9654 21.0717 16.8435 19.7856 18.3954L14.3446 12.9588ZM9.70484 3.95387C9.85323 4.33937 10.061 4.79407 10.3083 5.31796C10.5358 5.78254 10.7535 6.19769 10.892 6.46458C10.9711 6.61285 11.0404 6.73147 11.0898 6.82043V6.8402L11.1591 6.95881C11.1591 6.95881 11.1789 6.98847 11.1888 7.00824L11.2283 7.07743C11.4064 7.31466 11.6933 7.45305 12 7.45305C12.3066 7.45305 12.6133 7.29489 12.7914 7.03789L12.831 6.97858C12.831 6.97858 12.831 6.95881 12.8409 6.95881L13.3355 6.07908L13.286 6.1285C13.4048 5.90115 13.5433 5.62438 13.6916 5.31796C13.939 4.80395 14.1467 4.33937 14.2951 3.95387C14.4336 3.58814 14.6216 3.06425 14.6216 2.61944C14.6216 2.50082 14.6216 2.38221 14.6018 2.27348C15.9868 2.63921 17.2926 3.32125 18.4105 4.23064L12 10.6359L5.59933 4.23064C6.70732 3.31137 8.02307 2.63921 9.40806 2.27348C9.38827 2.39209 9.38827 2.51071 9.38827 2.62932C9.38827 3.06425 9.57624 3.59802 9.71473 3.96376L9.70484 3.95387ZM12.6925 2.64909C12.6925 2.64909 12.6727 2.73806 12.6628 2.79736C12.6232 2.92586 12.5738 3.08402 12.5045 3.26194C12.3858 3.56837 12.2176 3.94399 12.0099 4.3888C11.8021 3.95387 11.6339 3.57825 11.5152 3.26194C11.446 3.07414 11.3965 2.92586 11.3569 2.79736C11.3372 2.73806 11.3273 2.68863 11.3273 2.64909V2.61944C11.3273 2.24382 11.6339 1.92751 12.0099 1.92751C12.3858 1.92751 12.7024 2.23394 12.7024 2.60956V2.64909H12.6925ZM19.7757 5.59473C21.0618 7.15651 21.8433 9.02471 22.0313 11.0313H14.3347L19.7757 5.59473Z" fill="url(#paint0_linear_23123_25685)"/>
<defs>
<linearGradient id="paint0_linear_23123_25685" x1="12" y1="0" x2="12" y2="24" gradientUnits="userSpaceOnUse">
<stop stop-color="#DADADA"/>
<stop offset="1" stop-color="#535353"/>
</linearGradient>
</defs>
</svg>
