<svg width="24" height="24" viewBox="0 0 24 24" fill="none" xmlns="http://www.w3.org/2000/svg">
<path d="M22.169 13.3758C22.169 8.65991 15.7721 3.17594 13.8106 1.60765C13.322 1.2144 12.7137 1 12.0865 1C11.4593 1 10.851 1.2144 10.3624 1.60765C8.40181 3.17594 2.004 8.65899 2.004 13.3758C1.94738 14.894 2.49407 16.373 3.52458 17.4893C4.5551 18.6057 5.98563 19.2688 7.50355 19.3336C8.85347 19.3009 10.1408 18.7575 11.1058 17.813C10.9408 20.0715 10.3587 21.1668 8.42014 21.1668H5.67037V23H18.5027V21.1668H15.7529C13.8143 21.1668 13.2323 20.0669 13.0673 17.813C14.0323 18.7575 15.3196 19.3009 16.6695 19.3336C18.1874 19.2688 19.6179 18.6057 20.6484 17.4893C21.679 16.373 22.2256 14.894 22.169 13.3758ZM12.0599 21.1668C12.0682 21.1522 12.0783 21.1384 12.0865 21.1237C12.0948 21.1384 12.1048 21.1522 12.1131 21.1668H12.0599ZM12.9069 14.6737L12.0865 13.0339L11.2662 14.6737C11.2524 14.7021 9.78953 17.5004 7.50355 17.5004C6.47213 17.435 5.50827 16.965 4.82165 16.1925C4.13504 15.4201 3.78122 14.4078 3.83718 13.3758C3.83718 10.274 7.96918 5.8698 11.5072 3.04028C11.6708 2.90688 11.8754 2.83402 12.0865 2.83402C12.2976 2.83402 12.5022 2.90688 12.6658 3.04028C16.2038 5.8698 20.3358 10.2749 20.3358 13.3758C20.3918 14.4078 20.038 15.4201 19.3514 16.1925C18.6648 16.965 17.7009 17.435 16.6695 17.5004C14.3652 17.5004 12.9197 14.6993 12.9114 14.6737H12.9069Z" fill="url(#paint0_linear_23123_25919)"/>
<defs>
<linearGradient id="paint0_linear_23123_25919" x1="12.0865" y1="1" x2="12.0865" y2="23" gradientUnits="userSpaceOnUse">
<stop stop-color="#DADADA"/>
<stop offset="1" stop-color="#535353"/>
</linearGradient>
</defs>
</svg>
