
<svg xmlns="http://www.w3.org/2000/svg" width="2560" height="40" fill="none"><path d="M2560 39.266V11.09c-1.43.627-2.96.847-4.55.847-1.02 0-2.05-.093-3.11-.22-4.46 1.796-8.78 3.186-13.62 1.186-3.62.169-7.28.424-10.63-.966.02-.025.04-.034.05-.059-.99-.034-2.18-.161-3.34-.271l.26.169c-1.74 1.068-3.45.551-5.15-.068-.45.102-.93.178-1.4.22.02.017.04.034.06.059-2.42 1.635-5.36.983-8.12.983-.26 0-.5.008-.75.017-2.36-.042-7.07 1.441-10.08 1.407-1.17 1.779-8.65 2.246-10.4 1.051-2.32.144-3.28-.915-3.9-2.288-2.64.72-5.91 3.355-8.55 1.39.03-.085.05-.161.08-.246-1.85.441-4.54-.068-8.1-2.542-.22.017-.44.017-.67.017-2.17 0-3.79-.678-4.63-2.305-2.99-.585-5.74.33-8.57.712-.7.331-1.19.356-1.56.195v.051c-.32.254-.72.39-1.2.407-1.6 1.144-2.98 2.779-5.73 1.364l-3.26-.534-1.7-.025c-2.79-.068-5.65.178-8.28-.72-.21-.059-.42-.135-.64-.229-.54.068-.97-.068-1.37-.271 0 .009.01.017.02.025h-.04c-.98 0-1.58-.415-2.03-1-6.39 1.796-6.54 9.109-15.15 1.568-5.11-.102-10.24-1.254-15.34.458-1.7.576-3.78.051-5.48-.72v-.093c-1.11-.042-2.2-.17-2.99-.271l-8.53 1.195c-7.24-.161-14.49.364-21.72.661-8.8 1.347-18.66.907-27.74.822l-3.27.203c-.81.771-2.16 1.22-3.43 1.101.03.025.06.042.09.076-2.43 1.22-4.88 1.263-7.35.059a7.08 7.08 0 0 1 .62-.381c-2.54-.136-4.41-.5-6.28-1.373-1.87-.864-3.76-2.245-6.32-4.398-.5-.008-.98-.102-1.43-.271-2.24-.822-4.66-1.085-7.04-1.474.07.051.14.093.21.144-1.79 1.729-4.33 1.373-6.77 1.254-5.94 1.712-12.95.576-17.68 4.177.26-.11.53-.195.86-.237-.28.686-.83 1.119-1.88 1.119-.02.008-.03.008-.04.017-.6.678-1.18.636-1.74-.025 0 0-.01-.003-.02-.008-2.57.398-4.68-.407-6.73-1.364-2.31.178-4.65.178-6.99.263-2.32.085-4.63.263-6.89.813-.75.246-1.19.195-1.39-.017-.05.034-.11.076-.18.102-1.34.229-2.69-.042-3.98-.254l.52.254-5.02.322c-1 .551-2.06.737-3.15.737-2.15 0-4.42-.712-6.62-.712-.5.576-1.19.907-2.18.83.07-.068.14-.119.2-.178-.59.195-1.2.322-1.98.195-6.39.729-10.08-.212-13.72-.212-3.3 0-6.57.771-11.79 4.228-1.91 1.847-4.69 1.11-6.92.873-5.11-1.085-10.19-.186-15.31-.822-2.32 1.364-6.68 1.89-11.04 2.11-4.35.229-8.69.161-10.96.347-1.02.627-2.16.89-3.35 1s-2.43.076-3.64.119c-3.79.695-7.07 2.601-11.13 2.601-.25 0-.49-.008-.75-.025-.8.966-2.06 1.186-3.5 1.102.02-.042.05-.068.09-.093a14.97 14.97 0 0 1-1.71.254c.07.034.14.068.22.102l-5.38 2.279c-2.12 1.059-4.35 1.39-6.64 1.39-1.8 0-3.62-.203-5.46-.407-5.52-.441-12.42 1.593-17.14-.907-3.96.246-8.15 1.712-12.12 1.712-1.09 0-2.16-.11-3.2-.381-8.09-1.381-15.54-.17-23.84-.415.01-.017.01-.034.01-.051-1.76.381-3.65.483-5.12.28-2.08-.11-4.19.093-6.28.093s-4.05-.195-5.97-1.051c-4.25-.144-7.77-1.203-9.89-4.059-1.8-1.381-3.55-2.805-5.49-4.05s-4.07-2.313-6.63-3.008c-2.21-.636-5 .186-6.82-1.415-.05.008-.08.017-.11.025-1.06.246-2.42.915-3.11.652-2.82-1.051-6.04.856-8.67-.754-1.36-.068-2.65-.263-3.51-1.144-.61-.229-1.22-.432-1.83-.61.11.119.22.246.31.381-.81-.025-1.36-.314-1.76-.754-10.25-2.313-21.41 1.712-32.33.881-9.26 3.55-19.6 3.915-29.23 1.924.09.085.18.169.26.271-.79.051-1.35-.195-1.76-.61-.69-.153-1.35-.331-2.03-.508-.17.017-.33.025-.5.025-1.12 0-2.06-.356-2.84-1.034l-4.86-.203c-1.02.085-2.19.186-3.31.144.03.017.05.042.06.068-.02 0-.03.008-.07.008-.23.669-.82 1.076-1.78 1.178-.37.525-.88.814-1.49.983-.58.169-1.26.203-1.97.203h-.01l-1.29 1.034c-.35.457-.6.957-.93 1.407v.085c0 .576-.42.873-1.24.949-3.64.958-8.03.644-11.92 1.424-.05-.263-.09-.491-.12-.729-3.23 2.712-14.3 6.694-28.85 4.093-5.16.381-10.13 1.779-15.4 1.618-1.24.271-2.39.144-3.48-.347-2.05-.619-3.99-.839-5.89-.839-3.68 0-7.22.822-11.12 1.186-11.28 3.466-17.73 2.872-27.05 1.127-1.96.102-3.87.025-5.51-1.068 0 .008-.01.017-.02.017l-8.4-.144c-8.88 1.229-17.64-2.169-26.28.187-.89.042-1.79.144-2.69.246-1.16.737-2.43.932-3.77.932-1.02 0-2.09-.119-3.13-.195a6.34 6.34 0 0 1-1.57.246c-.89.797-2.17 1-3.45 1.178-.37.568-.9.974-1.83.991-6.27 2.737-15.34 4.94-22.15 2.652h-.01c-1.98-.203-4.53-.025-6.98-.025-3.94 0-7.65-.449-8.47-3.601-3.45-1.932-6.5-4.618-11.01-2.55-1.89.305-3.83.432-5.82.432-5.7 0-11.66-1.017-17.2-1.661-4.43-.305-8.48.466-12.14 2.305-.01-.017-.03-.034-.05-.059 0 .059 0 .102-.05.161-.14.559-.6.898-1.32 1.051l-.38.288c-.15.534-.58.864-1.39.915-4.2 2.55-9.6 3.999-13.58.127-2.97-.263-5.77-1.288-8.78-1.288-.51 0-1.04.026-1.56.093-8.99-.008-20.42-7.973-29.09-10.99l1.76 1.008c-.93-.025-1.45-.407-1.76-.991l-3.37-.178c-.72.856-1.73 1.407-3.13 1.534-2.51 1.517-5.9 1.178-8.72 2.101-.64.212-1.85.11-2.4-.212-2.22-1.288-4.91-1.94-7.54-2.669-2.63-.72-5.21-1.517-7.21-3.076-3.14-1.822-5.86-.059-8.77 1.169-3.22 1.898-8.36 2.584-12.4 2.432-3.12-.39-6.23.568-9.32.568-1.22 0-2.45-.152-3.68-.602-.42.042-1.24.034-1.66-.017l-3.44.153a6.5 6.5 0 0 1-1.21.11c-.13 0-.28 0-.41-.008-6.45 1.517-13.11 1.042-19.71.983-3.24-.627-5.75-1.644-8.33-2.322l-7.86-.136c.3-.178.62-.322.92-.458a20.89 20.89 0 0 0-2.63.475 10.88 10.88 0 0 1-1.85-.186c.07.136.15.271.21.415-.79.881-1.98 1.178-3.35 1.254-14.8 11.566-20.72 3.966-37.5 7.253-1.03.127-2.27.229-3.47.161-.3.644-.9 1.042-1.87 1.127l1.8-1.127c-3.14 1.593-5.86 4.135-10.31 3.618-1.69.152-3.37.085-5.03 0 .01.017.04.025.05.042h-.01c-1.89 1.441-4.38 1.296-6.8 1.356-.34.576-.96.89-1.82.983-5.28 2.737-11.79 3.635-17.13 0-2.03-.347-6.81-2.923-8.61-4.923a1.1 1.1 0 0 1-.04.152c-1.31-.144-2.54-.415-3.34-1.271l-7.55-2.432a3.14 3.14 0 0 1-.78-.246h-.01s-.05-.034-.09-.042c-1.91-.127-3.98.271-5.58-.881h-.14c-.45 0-.85-.102-1.2-.305-2.15-.161-5 .441-6.8-.636 0 .059.01.093.01.093l-1.17-.254a2.17 2.17 0 0 1-.99-.212l-2.87.212c-1.92 1.025-3.48-.356-5.23-.407l-1.7.051c-5.07.822-9.61-1.949-13.83-3.61 0-.017.01-.025.02-.034-1.72-.347-2.98-.771-3.29-1.229-2.2 0-6.86-1.152-8.97-2.788-.59-.178-.95-.525-1.11-1.008l.39.271c-.34-.466-.44-.949-.24-1.44-.09-.008-.19-.025-.29-.025a21.97 21.97 0 0 1 .08 1.144l-1.99-.966-1.8-1.186a134.18 134.18 0 0 1-14.15-.67l.68.492c-2.27-.017-3.19.924-3.31 2.432-.47 4.262 3.62 7.829 3.62 11.939 0 .534-.07 1.076-.22 1.627 6.63 12.549-19.06-.839-15.25-7.397-.59-.508-1.37-1.432-1.94-2.415 0 .051-.01.102-.01.153-1.42-.602-1.62-1.593-1.61-2.652l-.22.085-.01-.008c-.81-.288-1.27-.729-1.06-1.424.05.017.07.034.11.051-.22-.381-.36-.788-.38-1.229-2.47-.042-5.12.517-7.15-1.076v-.102l-1.4-.127c-7.51 2.381-13.51-2.5-20.72-2.5a15.52 15.52 0 0 0-1.52.076c-5.14-.042-9.39-1.89-13.72-3.584.05-.085.12-.169.19-.263-4.9-.466-9.93-1.33-13.81-1.085-15.34 2.271-16.24-2.644-23.22-2.644-.71 0-1.49.051-2.36.169-1.14 1.068-2.89 1.72-4.39 1.127-6.17-2.373-10.29 2.584-16.16 2.483-.41.119-.83.169-1.27.169-.11 0-.21 0-.32-.009-.86.83-2.02 1.169-3.43 1.085.02-.025.04-.042.06-.068-.52.119-1.03.22-1.53.297-.01 0-.01.008-.02.008l-1.79.907c-.07.042-.14.085-.22.11l-8.51 6.245c-3.99 3.152-5.71 3.381-11.82 1.517-4.92 1.068-11.86-1.796-16.77-1.686-2.71-.025-3.52-2.457-5.46-3.593-4.47-.025-8.69-.822-12.9-1.695-4.22-.873-8.39-1.813-12.79-2.144-3.26.813-6.45 1.906-10.07 1.517-10.52 3.135-19.57 1.279-29.32 1.279-1.07 0-2.13.025-3.22.076-.87.839-2 1.212-3.45 1.059-7.35-.051-14.95-4.254-21.75-2.296.06-.008.12-.017.2-.017-.55.602-1.3.949-2.33.983.08-.102.18-.178.27-.263a10.39 10.39 0 0 0-.92.483 5.41 5.41 0 0 0-.91.085c-6.78 3.627-16.14 3.067-24.03 4.787-1.14 1.042-2.28 1.042-3.45.161l-6.85 2.152c-5.06.873-10.49 4.076-15.215 1.085l-5.38-.042c-2.779.652-5.569.763-8.404.212-.656.085-1.3.119-1.934.119-2.846 0-5.547-.72-8.303-1.186l-1.734.068c-1.546.161-2.846-.093-3.735-1.093-.779-.22-1.457-.737-1.568-1.339-1.7-.873-4.257-.822-5.224-2.5-.6-1.059-1.201-1.83-1.801-2.415-.066.034-.133.076-.211.11-6.958 1.746-13.494-1.373-20.13-2.711.088-.068.177-.119.255-.178-1.745-.178-3.457-.517-5.135-1.161-.667-.017-1.301-.136-1.923-.288.066.051.133.093.211.144-1.49.263-5.714-.178-6.814-1.212v.102c-.845.102-1.301.093-1.534-.085-.056.025-.1.051-.167.076-.733-.085-1.467-.127-2.178-.127-5.747 0-10.794 2.5-16.529 2.754a7.15 7.15 0 0 1-1.879 1.229c.122.051.256.102.389.152-.367 1.568-.878 3.084-1.723 4.491-.834 1.398-2.023 2.678-3.746 3.771-.311.102-.856.161-1.278.161-.134 0-.245-.008-.345-.017-6.258 2.542-11.36 3.381-15.651 3.525.123.085.256.152.367.237-7.603 2.55-17.518.186-24.877 4.686-.722.161-1.612.254-2.501.22 0 .025.011.068.011.068-.844.856-2.012 1.093-3.39.915l.056-.042c-1.268.246-2.568.398-3.869.398-1.022 0-2.056-.093-3.068-.305l-5.168-.051c-.812.152-1.935.432-2.935.525.011.008.022.017.022.025-4.346 4.347-10.693.356-2.212-1.585.79-.941 1.957-1.313 3.435-1.195-.011.008-.011.017-.022.017.044 0 .089-.025.122-.034h-.044c.667-.957 1.767-1.322 3.156-1.322h.145c.267-.576 1.012-1.339.734-1.678-.301-.381-.423-.72-.423-1.034 0-.839.923-1.457 1.59-2.152-.078-.407-.078-.796-.056-1.195-.044.008-.078.017-.111.025-.022-.008-.044-.025-.056-.034-.922-.11-1.545-.407-1.445-1.169l.556.449c-.856-.864-1.134-1.898-.278-2.966.278-1.017 1.268-1.923 1.268-2.983a1.74 1.74 0 0 0-.156-.72 2.87 2.87 0 0 1-1.379-.28l-5.313-1.008c.034.025.078.034.111.051L833.566 8.2c-.434.568-1.045.941-1.99.958-4.479 3.355-5.191 9.312-12.883 7.092-.822-.195-1.678-.432-2.545-.695-4.235.492-8.126-1.152-12.294-1.152-.256 0-.523 0-.79.017-1.022.695-2.245 1.042-3.512 1.313-1.267.28-2.568.483-3.746.907a42.41 42.41 0 0 0-5.024.466c-.979.712-2.157.915-3.524.67l.078-.059c-1.112.22-2.235.466-3.357.72-1.256 1.042-3.235.788-4.847 1.051-.411.585-1.045.924-1.967.949-1.101.178-2.312.652-3.279.474-5.714-1.025-11.738 1.89-17.363 2.22-4.135 2.627-8.948 3.457-14.095 3.457-.967 0-1.956-.034-2.945-.085a3.01 3.01 0 0 1-1.457.169c-3.323 1.661-7.614.059-10.837 2.5-2.59 1.762-6.614-1.212-9.482.788-3.724 2.822-8.959 3.059-13.984 2.839h-.022c-6.414 2.805-14.483 2.059-18.819-2.457-5.168-1.118-15.406-.619-16.973-4.957-2.179-.169-4.358-.424-6.536-.424-1.245 0-2.49.085-3.735.314-4.257.525-7.926-1.737-11.95-2.44-2.79.508-4.968 1.729-7.547 1.729-.845 0-1.734-.127-2.701-.458-.278.136-.823.212-1.145.152-.2 1.085-1.167 2.025-2.468 2.745-.267.322-.656.525-1.211.568-1.234.492-2.602.797-3.813.847-1.945.898-4.168.703-6.292.873-2.667 1.254-5.602 1.805-8.592 2.186s-6.047.61-8.948 1.22c-6.592 1.839-11.883.441-16.162-3.432l-5.881-1.559c-1.923-.568-3.779-1.254-5.435-2.229-2.946-1.186-6.036-2.847-6.67-3.982 0 .042 0 .076-.011.11l-1.122-.746c-2.768-.441-5.858-1.33-8.293-2.466s-4.213-2.517-4.357-3.923l-1.745-1.093c-.534-.051-1.023-.144-1.49-.28 0 .008.023.025.034.034-2.601.636-4.302-.254-5.725-1.542l.333.356c-.855-.195-1.256-.61-1.211-1.237-.834-.89-1.59-1.83-2.423-2.559-1.89-1.025-3.602-2.169-4.802-3.661l-1.745-1.203-3.035.008C527.262 8.226 513.812.591 505.72.659L500.584.6c-3.435.754-7.125 1-10.126 2.61h-.045c-.3.576-.8.949-1.723.941l.545-.305c-2.112.915-4.813.813-7.236.61-2.401 1.593-4.836 1.424-7.292.127a52.29 52.29 0 0 1-1.579-.33c.067.068.145.127.223.195l-1.59.212c-.722.576-1.589.83-2.579.83-.311 0-.633-.025-.967-.076-1.8-.263-3.746-.263-5.735-.153.155.076.3.136.455.212-.344.153-.711.229-1.1.229-.111 0-.211-.008-.322-.017-1.968 1.678-4.469.991-6.859.805-1.489.254-5.791 1.051-8.414.813-1.001.619-2.079.847-3.202.847-2.401 0-4.991-1.051-7.292-1.5l-1.745.144c-1.545.78-3.168 1.364-4.98 1.364a8.96 8.96 0 0 1-1.745-.178l-5.324 1.042-10.127 3.982c-3.657 6.88-14.606 6.22-22.009 9.88-2.812 1.237-5.758 1.585-8.759 1.585-3.346 0-6.769-.432-10.149-.5-6.802 1.305-13.827-.5-20.73-1.093.1.059.2.11.311.169-2.345 1.271-4.713.059-7.07.017l.478-.263c-.678.059-1.367.136-2.045.246-2.457 1.042-5.013 1.415-7.614 1.415-4.802 0-9.76-1.254-14.484-1.796-3.457-.025-7.036-.085-10.515.178.122.093.233.161.344.263-3.479 1.856-7.347 2.745-11.682 2.508-1.245.754-2.679.881-4.158.881-.478 0-.956-.017-1.434-.025l-6.38 1.593c-5.291 1.661-10.582 1.983-15.84-.068-2.745-.017-3.857-.898-4.591-2.084s-1.089-2.686-2.323-3.94c-10.526-2.144-21.431-2.923-32.346-2.923-2.824 0-5.647.051-8.471.144-.611.178-1.156.186-1.645.093v.034c-2.467 1.966-5.157 3.05-8.614 1.152-4.135-.474-7.959.898-11.983 1.068-4.702 2.61-11.427.864-17.018 1.398-5.314 1-9.838-2.61-15.307-1.144-3.134 2.169-5.646 2.212-7.114 1.364-.011.051-.011.102-.011.152-1.3-.237-2.934-.246-4.302-.508-1.356-.263-2.445-.788-2.612-2.059.011-.017.023-.026.034-.034-1.045-.144-1.712-.602-2.057-1.33-3.09-.881-4.324-2.703-4.757-4.923-.189-.017-.356-.025-.512-.025-2.767 0-2.067 2.694-4.413 3.406-1.389.89-2.979 1.449-4.846 1.601-1.778 1.068-3.846 1.559-5.98 1.932-2.123.373-4.302.636-6.303 1.263-3.913.618-7.792 2.008-11.827.305.056-.051.1-.085.156-.127-4.358.619-8.726 1.508-13.195 1.508-1.311 0-2.634-.076-3.968-.263-.6 0-1.201-.008-1.79-.008l-10.171-.085c-9.937 2.584-19.419-.22-29.156-.042-7.525.525-14.117-1.805-20.797-3.576-3.879-.254-7.937.551-11.627-.898l-1.601-.314c-1.956.178-3.857.246-5.302-.974 0 .017.011.017.011.034l-3.268-.237c.067-.068.122-.11.178-.169-.211.051-.434.119-.667.186.156-.008.311-.008.467-.008-1.99 1.229-4.024 1.161-6.08.441-.278-.085-.556-.195-.845-.331l-.033.017c.056-.085.133-.161.2-.246-1.501.305-3.179.491-4.969.491-.211 0-.422 0-.634-.008v20.94h2560z" fill="#000"/></svg>
