<svg width="108" height="36" viewBox="0 0 108 36" fill="none" xmlns="http://www.w3.org/2000/svg">
<path d="M83.8483 26.1249C82.3577 26.1249 80.8671 26.1249 79.3544 26.1249C79.1899 25.414 79.0135 24.7187 78.8743 24.0174C78.8166 23.7263 78.713 23.6134 78.3519 23.6176C76.55 23.6385 74.7475 23.6334 72.9454 23.6205C72.6726 23.6185 72.5642 23.6996 72.4811 23.9231C72.2329 24.5914 71.9614 25.2529 71.6836 25.9118C71.6459 26.0013 71.521 26.124 71.4353 26.1247C69.811 26.1374 68.1865 26.134 66.5153 26.134C66.8198 25.4742 67.1083 24.8442 67.401 24.2159C69.4954 19.7206 71.5907 15.2256 73.6858 10.7306C74.1395 9.75704 74.8198 9.34936 75.9899 9.3493C77.294 9.34922 78.598 9.34928 79.9354 9.34928C80.0658 9.89732 80.1971 10.4373 80.3227 10.9784C81.3533 15.4208 82.3815 19.8635 83.4147 24.3054C83.547 24.8744 83.7031 25.4389 83.8483 26.0055C83.8483 26.0453 83.8483 26.0851 83.8483 26.1249ZM77.9666 20.1636C77.4877 18.0979 77.0151 16.06 76.5427 14.0221C76.5234 14.0187 76.5041 14.0153 76.4848 14.0119C75.6615 16.0549 74.8381 18.098 74.0057 20.1636C75.3502 20.1636 76.6375 20.1636 77.9666 20.1636Z" fill="#1434CB"/>
<path d="M64.2708 9.05054C64.8638 9.1496 65.4614 9.23105 66.0486 9.3529C66.5844 9.4641 67.1091 9.61907 67.6786 9.76499C67.3916 10.9725 67.1114 12.1511 66.8372 13.3043C66.0859 13.106 65.3677 12.8778 64.6296 12.7312C63.6198 12.5308 62.5854 12.4544 61.5753 12.7076C61.1646 12.8105 60.749 13.0081 60.4258 13.2573C59.8713 13.6847 59.8639 14.2999 60.3935 14.7486C60.7587 15.0579 61.1915 15.3119 61.624 15.5459C62.6073 16.0778 63.6397 16.5404 64.5953 17.1086C65.7206 17.7777 66.5415 18.6977 66.7138 19.9416C67.0186 22.1416 66.1142 23.8746 64.0599 25.1005C62.7681 25.8714 61.3063 26.2158 59.783 26.3433C57.6562 26.5213 55.5714 26.307 53.5392 25.7064C53.403 25.6662 53.2703 25.6159 53.1375 25.567C53.0979 25.5524 53.0634 25.5266 53.0026 25.4925C53.2897 24.2832 53.5772 23.072 53.8727 21.8269C54.2191 21.963 54.5443 22.0993 54.8767 22.2198C56.4643 22.7953 58.104 23.0585 59.8033 22.7722C60.2454 22.6976 60.6963 22.522 61.071 22.296C61.8842 21.8056 61.9622 20.8841 61.2217 20.3081C60.7351 19.9295 60.1501 19.6499 59.5956 19.346C58.7295 18.8714 57.8094 18.4669 56.9898 17.9358C55.9392 17.2549 55.1783 16.347 55.0341 15.1404C54.8182 13.3337 55.5634 11.8668 57.105 10.7269C58.4463 9.73511 60.0388 9.29496 61.7355 9.11011C61.8297 9.09984 61.9215 9.07083 62.0144 9.05054C62.7665 9.05054 63.5187 9.05054 64.2708 9.05054Z" fill="#1434CB"/>
<path d="M46.795 9.36294C46.5425 9.90942 46.3035 10.4305 46.0613 10.9503C43.7484 15.9137 41.4327 20.876 39.1293 25.8429C39.0196 26.0796 38.8853 26.1417 38.6185 26.1397C37.1588 26.1288 35.6987 26.1245 34.2392 26.1426C33.9297 26.1465 33.8289 26.0489 33.7576 25.7991C32.5201 21.4607 31.2619 17.1271 30.0384 12.7855C29.8139 11.989 29.3645 11.445 28.5218 11.1111C27.1708 10.576 25.7685 10.2001 24.3381 9.89449C24.2748 9.88097 24.2118 9.86619 24.1523 9.85283C24.1595 9.3493 24.1595 9.34928 24.6918 9.34927C27.2465 9.34927 29.8012 9.34876 32.356 9.3495C33.5676 9.34986 34.4423 9.98306 34.6714 11.062C35.3199 14.1163 35.9547 17.1731 36.5953 20.2288C36.6233 20.3624 36.6552 20.4954 36.6977 20.6836C36.7639 20.5715 36.8102 20.5086 36.8403 20.44C38.4271 16.8297 40.0143 13.2196 41.5929 9.60639C41.6791 9.40916 41.7853 9.34225 42.022 9.34394C43.5039 9.35451 44.9859 9.34906 46.4678 9.34979C46.5636 9.34984 46.6594 9.35728 46.795 9.36294Z" fill="#1434CB"/>
<path d="M44.8603 26.1345C46.1949 20.5237 47.5202 14.9523 48.8487 9.3672C50.4647 9.3672 52.0616 9.3672 53.6892 9.3672C53.4877 10.2178 53.2907 11.0522 53.0924 11.8864C51.9958 16.4996 50.895 21.112 49.8105 25.7275C49.7351 26.0481 49.6088 26.15 49.2388 26.1436C47.9123 26.1205 46.585 26.1345 45.2579 26.1345C45.1389 26.1345 45.0199 26.1345 44.8603 26.1345Z" fill="#1434CB"/>
</svg>
